{"glyphs":{"0":{"ha":772,"x_min":49,"x_max":724,"o":"m 49 494 q 138 883 49 746 q 390 1021 226 1021 q 638 888 551 1021 q 724 506 724 754 q 701 283 724 381 q 634 117 678 185 q 527 15 590 50 q 383 -21 464 -21 q 135 113 222 -21 q 49 494 49 246 m 389 885 q 228 494 228 885 q 237 335 228 403 q 264 219 246 268 q 314 144 281 174 q 383 115 347 115 q 503 213 463 115 q 543 506 543 311 q 507 782 543 688 q 458 856 490 826 q 389 885 425 885 z "},"1":{"ha":772,"x_min":94,"x_max":681,"o":"m 94 896 l 344 1000 l 483 1000 l 486 136 l 681 136 l 681 0 l 122 1 l 124 135 l 303 136 l 303 832 l 131 767 l 94 896 z "},"2":{"ha":772,"x_min":60,"x_max":714,"o":"m 60 0 l 60 118 q 90 169 79 151 q 114 207 100 188 q 147 251 129 231 q 183 294 164 272 q 259 376 215 332 q 338 453 303 421 l 414 521 q 507 630 478 578 q 536 740 536 682 q 499 851 536 810 q 401 893 463 893 q 249 717 272 893 l 82 726 q 178 947 93 869 q 406 1024 263 1024 q 532 1003 475 1024 q 629 943 589 982 q 692 850 669 904 q 714 729 714 796 q 667 560 714 635 q 624 506 651 536 q 560 443 596 476 l 497 385 q 472 361 488 376 q 432 322 456 346 q 388 276 403 293 q 369 257 372 260 q 339 224 353 240 q 313 192 325 207 q 298 173 304 182 q 279 147 292 164 l 686 147 l 686 0 l 60 0 z "},"3":{"ha":772,"x_min":36,"x_max":699,"o":"m 36 163 l 178 233 q 349 128 240 128 q 472 173 426 128 q 517 297 517 218 q 464 423 517 379 q 314 467 411 467 q 276 465 292 467 q 231 460 260 464 l 231 588 q 266 582 254 583 q 293 581 278 581 q 439 624 389 581 q 489 746 489 667 q 456 849 489 811 q 365 886 424 886 q 279 861 317 886 q 210 783 242 836 l 81 858 q 208 982 136 942 q 376 1022 281 1022 q 492 1003 440 1022 q 582 948 544 983 q 640 863 619 913 q 660 753 660 813 q 619 613 660 671 q 503 532 578 556 q 647 448 594 513 q 699 286 699 383 q 674 163 699 219 q 603 66 649 107 q 497 3 558 25 q 360 -19 435 -19 q 172 24 250 -19 q 36 163 93 68 z "},"4":{"ha":772,"x_min":31,"x_max":746,"o":"m 31 218 l 31 328 l 413 1001 l 625 1001 l 625 351 l 746 351 l 746 218 l 625 218 l 624 0 l 456 0 l 456 218 l 31 218 m 453 831 l 200 351 l 453 351 l 453 831 z "},"5":{"ha":772,"x_min":50,"x_max":708,"o":"m 50 197 l 199 267 q 363 124 244 124 q 484 183 439 124 q 529 344 529 242 q 488 490 529 436 q 376 544 446 544 q 292 517 328 544 q 235 442 256 490 l 86 474 l 144 1001 l 654 1001 l 654 863 l 290 863 l 265 618 q 346 667 307 653 q 431 682 385 682 q 544 658 493 682 q 631 591 594 635 q 688 487 668 547 q 708 353 708 426 q 684 201 708 269 q 615 83 660 132 q 508 7 571 33 q 368 -19 444 -19 q 249 -1 306 -19 q 150 51 192 17 q 93 113 117 79 q 50 197 69 146 z "},"6":{"ha":772,"x_min":60,"x_max":714,"o":"m 700 881 l 563 811 q 440 890 524 890 q 362 866 397 890 q 301 797 326 842 q 260 688 275 751 q 243 544 244 624 q 333 625 288 600 q 439 650 378 650 q 549 627 499 650 q 637 564 600 604 q 694 466 674 524 q 714 340 714 408 q 690 197 714 263 q 624 83 667 131 q 522 8 581 35 q 394 -19 464 -19 q 147 103 233 -19 q 60 453 60 225 q 86 689 60 583 q 161 868 113 794 q 280 982 210 942 q 436 1022 350 1022 q 525 1011 481 1022 q 603 976 569 1000 q 650 938 628 960 q 700 881 672 915 m 393 518 q 238 392 289 518 q 280 185 240 257 q 392 114 319 114 q 497 171 458 114 q 535 326 535 228 q 498 468 535 418 q 393 518 461 518 z "},"7":{"ha":772,"x_min":85,"x_max":688,"o":"m 85 1001 l 688 1000 l 688 890 l 350 1 l 156 0 l 500 863 l 85 863 l 85 1001 z "},"8":{"ha":772,"x_min":51,"x_max":721,"o":"m 251 532 q 127 619 169 563 q 85 757 85 676 q 108 863 85 814 q 172 947 131 911 q 271 1001 214 982 q 394 1021 328 1021 q 513 1002 458 1021 q 606 950 567 983 q 666 870 644 917 q 688 769 688 824 q 607 586 688 658 q 572 560 588 569 q 522 536 556 550 q 721 269 721 453 q 696 153 721 206 q 626 62 671 100 q 520 3 582 24 q 383 -18 458 -18 q 247 2 308 -18 q 142 60 186 22 q 75 149 99 97 q 51 265 51 201 q 251 532 51 454 m 256 774 q 287 680 256 718 q 389 614 318 642 q 518 772 518 664 q 481 865 518 829 q 388 901 444 901 q 292 866 329 901 q 256 774 256 831 m 538 272 q 502 377 538 333 q 390 453 467 421 q 270 376 307 421 q 233 269 233 332 q 276 159 233 201 q 386 117 318 117 q 496 160 454 117 q 538 272 538 203 z "},"9":{"ha":772,"x_min":58,"x_max":715,"o":"m 86 118 l 219 190 q 273 131 244 149 q 340 113 301 113 q 481 205 429 113 q 536 458 533 297 q 447 374 494 400 q 335 349 400 349 q 222 372 274 349 q 135 436 171 394 q 78 535 99 478 q 58 664 58 593 q 82 808 58 742 q 148 922 106 874 q 249 996 190 969 q 376 1022 307 1022 q 519 989 457 1022 q 626 893 582 956 q 692 740 669 831 q 715 533 715 649 q 690 299 715 401 q 618 125 665 196 q 503 17 571 54 q 347 -21 435 -21 q 202 12 264 -21 q 86 118 140 44 m 376 479 q 472 514 429 479 q 538 610 514 549 q 492 817 533 744 q 376 889 451 889 q 273 832 311 889 q 235 675 235 775 q 271 529 235 579 q 376 479 307 479 z "}," ":{"ha":403,"x_min":0,"x_max":0,"o":""},"$":{"ha":763,"x_min":11,"x_max":728,"o":"m 11 254 l 207 297 q 263 178 218 218 q 381 138 307 138 q 490 174 447 138 q 532 271 532 211 q 514 330 532 303 q 464 374 496 357 q 369 410 446 383 q 314 428 315 426 q 282 440 299 433 q 246 456 265 447 q 201 476 222 467 q 164 496 179 485 q 84 585 113 528 q 56 710 56 643 q 77 826 56 772 q 136 920 99 879 q 226 986 174 961 q 340 1015 278 1011 l 340 1086 l 476 1086 l 476 1013 q 518 1005 504 1008 q 550 994 532 1001 q 618 951 588 979 q 672 889 649 924 q 700 834 692 860 q 715 758 708 808 l 536 715 q 488 824 526 786 q 388 863 449 863 q 288 826 329 863 q 247 736 247 790 q 319 635 247 665 q 375 615 336 628 q 453 589 414 601 q 478 580 468 583 q 497 574 489 576 q 515 567 506 571 q 538 557 524 563 q 581 536 561 546 q 617 515 600 526 q 699 422 669 479 q 728 297 728 364 q 665 109 728 189 q 482 -11 601 29 l 475 -12 l 475 -81 l 335 -81 l 335 -21 q 292 -17 310 -19 q 258 -11 274 -14 q 230 -3 243 -8 q 201 8 217 1 q 124 57 160 28 q 61 122 89 86 q 44 149 51 136 q 31 176 38 161 q 20 210 25 192 q 11 254 15 229 z "},"%":{"ha":1056,"x_min":49,"x_max":1007,"o":"m 49 757 q 66 860 49 813 q 114 943 83 908 q 186 997 144 978 q 278 1017 228 1017 q 370 997 328 1017 q 443 943 413 978 q 491 860 474 908 q 508 757 508 813 q 491 653 508 700 q 444 571 474 606 q 372 517 414 536 q 279 497 329 497 q 187 517 229 497 q 114 571 144 536 q 66 653 83 606 q 49 757 49 700 m 161 0 l 763 1001 l 890 1001 l 290 0 l 161 0 m 549 246 q 566 349 549 301 q 614 432 583 397 q 686 487 644 467 q 778 507 728 507 q 869 487 826 507 q 942 432 911 467 q 990 349 972 397 q 1007 246 1007 301 q 990 142 1007 189 q 942 59 972 94 q 869 4 911 24 q 778 -15 828 -15 q 687 5 729 -15 q 614 60 644 25 q 566 142 583 94 q 549 246 549 190 m 278 910 q 214 869 238 910 q 190 758 190 829 q 214 644 190 685 q 279 603 238 603 q 343 644 319 603 q 367 757 367 685 q 343 869 367 828 q 278 910 319 910 m 778 401 q 713 362 735 401 q 690 247 690 322 q 713 132 690 172 q 778 92 736 92 q 842 131 819 92 q 865 246 865 171 q 842 361 865 321 q 778 401 819 401 z "},"&":{"ha":932,"x_min":38,"x_max":936,"o":"m 264 576 q 228 678 240 628 q 215 774 215 729 q 234 874 215 829 q 286 952 253 919 q 367 1003 319 985 q 471 1021 414 1021 q 565 1005 522 1021 q 638 960 607 989 q 685 892 668 932 q 703 804 703 851 q 684 710 703 757 q 635 631 665 664 q 560 568 603 597 q 524 547 540 556 q 479 525 508 539 q 502 486 492 503 q 521 456 513 469 q 538 431 529 443 q 556 403 546 418 q 576 372 567 386 q 597 344 586 358 q 621 315 608 331 q 651 276 633 299 q 671 306 663 293 q 685 329 679 318 q 695 351 690 340 q 706 375 700 361 q 722 422 717 401 q 733 479 726 442 l 890 469 q 879 422 883 442 q 869 385 875 401 q 858 353 864 368 q 844 319 853 338 q 828 287 836 301 q 810 257 819 272 q 788 224 800 242 q 758 185 775 207 q 825 144 793 157 q 893 132 857 132 q 911 133 903 132 q 936 136 919 133 l 933 -1 q 881 -15 900 -12 q 840 -18 863 -18 q 711 11 775 -18 q 674 32 690 21 q 631 67 658 43 q 517 0 578 21 q 382 -21 457 -21 q 244 1 307 -21 q 135 63 181 24 q 63 158 89 103 q 38 279 38 213 q 92 451 38 379 q 264 576 147 524 m 381 790 q 391 713 381 753 q 425 632 401 672 q 558 811 558 692 q 535 883 558 856 q 475 911 513 911 q 406 878 432 911 q 381 790 381 844 m 411 311 q 389 344 399 329 q 369 376 379 360 q 349 413 360 393 q 322 458 338 432 q 207 290 207 400 q 221 221 207 253 q 259 165 235 189 q 317 128 283 142 q 389 115 350 115 q 453 126 425 115 q 522 167 482 138 q 486 210 501 192 q 458 245 471 229 q 435 276 446 261 q 411 311 424 292 z "},"'":{"ha":286,"x_min":44,"x_max":242,"o":"m 44 589 l 115 793 l 49 793 l 49 1001 l 242 1001 l 242 813 l 129 589 l 44 589 z "},"(":{"ha":347,"x_min":74,"x_max":332,"o":"m 258 -231 q 166 -161 200 -197 q 108 -76 132 -125 q 92 -32 99 -54 q 81 19 85 -10 q 75 83 76 47 q 74 169 74 119 l 74 458 l 74 747 q 81 897 74 843 q 108 993 89 951 q 166 1078 132 1042 q 258 1149 200 1115 l 332 1053 q 282 1001 301 1028 q 251 940 263 975 q 235 860 239 906 q 231 747 231 814 l 231 458 l 231 169 q 235 56 231 103 q 251 -24 240 10 q 283 -84 263 -58 q 332 -135 303 -110 l 258 -231 z "},")":{"ha":350,"x_min":15,"x_max":276,"o":"m 15 -135 q 71 -80 51 -107 q 100 -18 90 -53 q 112 60 107 7 q 117 167 117 113 l 117 458 l 117 749 q 113 863 117 817 q 97 944 108 910 q 67 1003 86 978 q 17 1053 47 1028 l 90 1149 q 111 1135 103 1142 q 126 1126 119 1129 q 191 1065 161 1100 q 239 993 221 1029 q 258 947 251 968 q 269 898 265 925 q 275 835 274 871 q 276 746 276 799 l 276 458 l 276 171 q 275 85 276 121 q 269 21 274 49 q 258 -30 265 -7 q 239 -76 250 -53 q 205 -131 225 -104 q 161 -181 185 -157 q 131 -206 146 -196 q 90 -231 117 -215 l 15 -135 z "},"*":{"ha":708,"x_min":53,"x_max":656,"o":"m 53 606 l 242 703 l 56 803 l 122 919 l 299 803 l 289 1000 l 421 1000 l 408 803 l 590 919 l 654 801 l 464 703 l 656 604 l 590 488 l 410 604 l 419 388 l 290 386 l 299 604 l 119 488 l 53 606 z "},"+":{"ha":772,"x_min":44,"x_max":726,"o":"m 44 415 l 44 576 l 307 576 l 307 844 l 468 844 l 468 576 l 726 576 l 726 415 l 468 415 l 468 150 l 304 150 l 304 415 l 44 415 z "},",":{"ha":289,"x_min":44,"x_max":243,"o":"m 44 -211 l 115 0 l 54 0 l 54 199 l 243 199 l 243 11 l 129 -211 l 44 -211 z "},"-":{"ha":504,"x_min":40,"x_max":464,"o":"m 40 300 l 40 463 l 464 463 l 464 300 l 40 300 z "},".":{"ha":276,"x_min":44,"x_max":231,"o":"m 44 0 l 44 197 l 231 197 l 231 0 l 44 0 z "},"/":{"ha":514,"x_min":21,"x_max":493,"o":"m 21 0 l 365 1001 l 493 1001 l 149 0 l 21 0 z "},":":{"ha":299,"x_min":64,"x_max":254,"o":"m 64 0 l 64 197 l 251 197 l 251 0 l 64 0 m 67 422 l 67 619 l 254 619 l 254 422 l 67 422 z "},";":{"ha":308,"x_min":64,"x_max":263,"o":"m 64 -211 l 136 0 l 74 0 l 74 199 l 263 199 l 263 11 l 150 -211 l 64 -211 m 74 422 l 74 619 l 263 619 l 263 422 l 74 422 z "},"<":{"ha":403,"x_min":40,"x_max":360,"o":"m 40 383 l 290 751 l 360 715 l 208 385 l 360 53 l 292 18 l 40 383 z "},"=":{"ha":772,"x_min":39,"x_max":731,"o":"m 39 553 l 39 699 l 731 699 l 731 553 l 39 553 m 39 301 l 39 449 l 731 449 l 731 301 l 39 301 z "},">":{"ha":400,"x_min":40,"x_max":357,"o":"m 40 53 l 192 383 l 42 717 l 113 751 l 357 385 l 110 19 l 40 53 z "},"?":{"ha":557,"x_min":4,"x_max":533,"o":"m 122 0 l 122 196 l 311 196 l 311 0 l 122 0 m 4 850 q 276 1021 101 1021 q 381 1003 333 1021 q 462 955 428 986 q 515 880 496 924 q 533 782 533 836 q 508 664 533 718 q 426 549 483 610 q 389 508 403 522 q 372 489 375 493 q 300 371 318 428 q 293 340 296 356 q 285 289 290 325 l 129 289 l 129 317 q 133 371 129 343 q 147 419 138 399 q 163 450 154 435 q 183 483 171 465 q 215 524 196 501 q 260 579 233 547 q 290 616 278 600 q 312 644 303 632 q 327 668 321 657 q 340 690 333 679 q 360 734 353 714 q 367 775 367 754 q 340 848 367 819 q 274 876 314 876 q 202 851 233 876 q 143 769 171 826 l 4 850 z "},"@":{"ha":1183,"x_min":64,"x_max":1036,"o":"m 638 317 q 610 269 626 290 q 428 225 535 179 q 343 311 375 249 q 315 474 311 374 q 317 498 317 486 q 321 522 318 510 q 372 674 335 608 q 460 776 410 740 q 534 810 497 803 q 603 811 571 818 q 660 783 636 804 q 697 732 685 763 l 708 803 l 779 803 l 729 511 l 711 396 q 707 344 706 364 q 713 310 708 325 q 740 276 719 286 q 785 274 761 267 q 818 292 803 281 q 860 333 833 304 q 906 408 885 361 q 938 514 928 456 q 929 699 954 615 q 848 841 904 783 q 710 925 792 899 q 531 938 628 951 q 380 883 449 925 q 263 774 311 840 q 192 624 215 708 q 178 443 169 539 q 191 366 181 403 q 217 294 201 329 q 340 134 263 194 q 510 57 418 74 q 701 69 603 40 q 888 178 800 99 q 926 217 908 197 q 961 260 944 238 l 982 190 q 966 169 975 179 q 949 150 957 160 q 572 -21 788 -21 q 390 12 475 -21 q 240 104 306 44 q 133 248 175 164 q 82 432 92 332 q 131 740 64 606 q 335 953 197 874 q 525 1017 422 1004 q 743 996 643 1031 q 910 890 843 961 q 1007 718 978 819 q 1014 500 1036 617 q 940 318 993 390 q 821 218 888 246 q 754 203 786 203 q 697 216 722 204 q 656 249 672 228 q 638 297 640 271 l 638 317 m 403 406 q 428 310 406 340 q 488 274 450 279 q 561 297 529 267 q 626 418 593 328 q 638 458 632 433 q 650 515 643 483 l 656 540 l 663 588 q 667 633 667 614 q 667 667 668 651 q 652 710 664 692 q 623 738 640 728 q 584 750 606 749 q 540 743 563 751 q 508 724 522 736 q 479 695 493 713 q 453 652 465 678 q 429 592 442 626 q 413 525 419 564 q 403 460 406 490 q 403 406 401 431 z "},"A":{"ha":774,"x_min":-31,"x_max":808,"o":"m -31 0 l 271 1001 l 514 1001 l 808 0 l 606 0 l 535 240 l 231 240 l 160 0 l -31 0 m 353 685 l 269 385 l 501 385 l 418 685 q 403 744 408 715 q 392 801 396 775 q 386 874 389 828 q 378 803 382 828 q 368 744 375 778 q 361 714 365 728 q 353 685 357 700 z "},"B":{"ha":826,"x_min":75,"x_max":785,"o":"m 75 0 l 75 1001 l 431 1001 q 490 999 460 1001 q 542 994 521 997 q 707 908 647 976 q 767 738 767 840 q 728 597 767 654 q 618 518 690 540 q 740 436 696 499 q 785 282 785 374 q 755 151 785 211 q 671 54 725 92 q 578 13 631 26 q 447 0 525 0 l 75 0 m 265 851 l 265 590 l 407 590 q 485 594 461 590 q 531 617 510 599 q 575 721 575 653 q 547 808 575 774 q 468 849 518 842 q 439 851 456 851 q 403 851 422 851 l 265 851 m 265 449 l 265 143 l 418 143 q 547 183 501 143 q 592 297 592 224 q 558 395 592 356 q 469 444 525 435 q 404 449 449 449 l 265 449 z "},"C":{"ha":872,"x_min":47,"x_max":842,"o":"m 840 699 l 650 667 q 591 822 638 768 q 467 875 544 875 q 308 779 363 875 q 254 493 254 683 q 469 122 254 122 q 661 338 631 122 l 842 314 q 713 65 810 150 q 463 -19 615 -19 q 290 16 367 -19 q 158 117 213 51 q 76 276 104 182 q 47 489 47 371 q 77 710 47 611 q 162 877 107 808 q 294 983 217 946 q 469 1021 372 1021 q 627 990 553 1021 q 751 900 701 958 q 806 813 786 860 q 840 699 826 765 z "},"D":{"ha":890,"x_min":75,"x_max":842,"o":"m 75 0 l 75 1001 l 369 1001 q 453 997 414 1001 q 525 985 493 992 q 657 925 599 967 q 756 821 715 883 q 819 678 797 758 q 842 503 842 597 q 811 296 842 389 q 724 138 781 203 q 588 36 668 72 q 411 0 508 0 l 75 0 m 265 842 l 265 144 l 383 144 q 577 236 510 144 q 644 500 644 328 q 601 718 644 632 q 478 829 558 804 q 428 839 454 836 q 369 842 401 842 l 265 842 z "},"E":{"ha":744,"x_min":75,"x_max":721,"o":"m 75 0 l 75 1001 l 697 1001 l 697 839 l 265 839 l 265 589 l 617 589 l 617 431 l 265 431 l 265 156 l 721 156 l 721 0 l 75 0 z "},"F":{"ha":660,"x_min":75,"x_max":685,"o":"m 75 0 l 75 1001 l 685 1001 l 685 838 l 265 838 l 265 586 l 589 586 l 589 425 l 267 425 l 267 0 l 75 0 z "},"G":{"ha":938,"x_min":60,"x_max":863,"o":"m 863 715 l 681 689 q 625 831 675 778 q 496 885 575 885 q 326 785 388 885 q 265 511 265 686 q 326 221 265 319 q 504 122 388 122 q 640 179 592 122 q 659 205 651 192 q 671 235 667 218 q 677 276 675 253 q 679 332 679 299 l 679 351 l 494 351 l 494 492 l 860 492 l 860 0 l 724 0 l 703 82 q 605 6 660 29 q 465 -18 550 -18 q 297 17 372 -18 q 169 119 222 53 q 88 281 117 186 q 60 493 60 375 q 90 714 60 615 q 176 881 119 813 q 313 985 232 949 q 494 1022 393 1022 q 744 942 649 1022 q 863 715 839 863 z "},"H":{"ha":903,"x_min":75,"x_max":828,"o":"m 75 0 l 75 1001 l 267 1001 l 267 604 l 636 604 l 636 1001 l 828 1001 l 828 0 l 636 0 l 636 456 l 267 456 l 267 0 l 75 0 z "},"I":{"ha":342,"x_min":75,"x_max":267,"o":"m 75 0 l 75 1001 l 267 1001 l 267 0 l 75 0 z "},"J":{"ha":629,"x_min":-25,"x_max":554,"o":"m -25 239 l 160 239 q 264 131 175 131 q 314 142 292 131 q 347 175 336 154 q 359 213 356 190 q 363 271 363 235 l 363 1001 l 554 1001 l 554 297 q 553 244 554 271 q 549 197 551 218 q 458 38 532 94 q 267 -19 385 -19 q 62 47 136 -19 q -25 239 -12 113 z "},"K":{"ha":831,"x_min":75,"x_max":846,"o":"m 75 0 l 75 1001 l 265 1001 l 265 543 l 596 1001 l 815 1001 l 508 604 l 846 0 l 635 0 l 386 451 l 264 292 l 264 0 l 75 0 z "},"L":{"ha":660,"x_min":75,"x_max":683,"o":"m 75 0 l 75 1001 l 267 1001 l 267 158 l 683 158 l 683 0 l 75 0 z "},"M":{"ha":1126,"x_min":78,"x_max":1050,"o":"m 78 0 l 78 1001 l 394 1001 l 535 407 q 540 383 538 396 q 544 357 542 371 q 551 322 549 338 q 555 290 553 307 q 558 253 557 274 q 561 207 560 233 q 564 256 563 235 q 567 294 565 276 q 571 326 568 311 q 576 356 574 340 q 582 377 578 363 q 589 407 586 392 l 728 1001 l 1050 1001 l 1050 0 l 864 0 l 864 722 q 864 751 864 738 q 865 789 864 765 q 866 820 865 807 q 867 845 867 833 q 869 870 868 857 q 869 903 869 883 l 856 846 l 842 789 l 826 722 l 651 0 l 474 0 l 297 722 q 290 753 294 736 q 282 789 286 769 q 277 815 279 803 q 272 840 275 828 q 266 867 269 853 q 258 901 263 882 q 260 836 260 864 q 261 789 261 808 q 263 749 263 764 q 263 726 263 733 l 263 722 l 263 0 l 78 0 z "},"N":{"ha":949,"x_min":76,"x_max":872,"o":"m 76 0 l 76 1001 l 300 1001 l 635 389 q 643 373 638 385 q 656 344 649 361 q 666 319 661 331 q 676 298 671 308 q 685 275 681 288 q 697 246 690 263 q 690 289 693 271 q 686 324 688 307 q 684 359 685 340 q 683 403 683 378 l 683 1001 l 872 1001 l 872 0 l 647 0 l 311 614 l 285 660 q 265 697 274 678 q 242 753 257 717 q 251 698 249 717 q 256 651 254 679 q 258 624 257 636 q 258 599 258 613 l 258 0 l 76 0 z "},"O":{"ha":944,"x_min":47,"x_max":896,"o":"m 47 500 q 76 719 47 622 q 160 885 106 817 q 294 988 215 953 q 471 1024 372 1024 q 650 988 571 1024 q 783 885 729 953 q 867 719 838 817 q 896 500 896 622 q 867 281 896 378 q 783 116 838 183 q 650 13 729 49 q 471 -22 571 -22 q 294 13 372 -22 q 160 116 215 49 q 76 281 106 183 q 47 500 47 378 m 308 785 q 287 733 296 761 q 272 672 278 706 q 263 596 265 638 q 260 500 260 554 q 272 328 260 393 q 308 215 283 263 q 375 147 332 171 q 471 122 418 122 q 569 147 525 122 q 636 215 613 172 q 674 328 663 264 q 685 500 685 393 q 673 672 685 607 q 636 785 661 738 q 569 853 613 829 q 471 878 525 878 q 375 853 418 878 q 308 785 332 829 z "},"P":{"ha":796,"x_min":74,"x_max":781,"o":"m 74 0 l 74 1001 l 410 1001 q 478 999 446 1001 q 532 994 510 997 q 714 895 647 976 q 781 689 781 814 q 751 547 781 610 q 664 444 722 485 q 617 417 640 428 q 566 400 594 407 q 501 390 538 393 q 414 388 464 388 l 263 388 l 263 0 l 74 0 m 264 847 l 264 544 l 392 544 q 488 551 457 544 q 542 572 519 557 q 596 692 596 611 q 410 847 596 847 l 264 847 z "},"Q":{"ha":961,"x_min":47,"x_max":914,"o":"m 575 -14 l 575 -78 l 575 -81 q 587 -121 575 -110 q 629 -132 599 -132 l 765 -132 l 765 -279 l 538 -279 q 394 -149 394 -279 l 394 -14 q 135 152 224 22 q 47 500 47 282 q 77 719 47 622 q 163 883 107 815 q 299 986 219 950 q 481 1022 379 1022 q 661 986 581 1022 q 798 883 742 950 q 884 719 854 815 q 914 500 914 622 q 828 158 914 288 q 575 -14 743 28 m 481 868 q 325 773 381 868 q 269 500 269 678 q 325 228 269 324 q 481 133 381 133 q 637 228 582 133 q 692 500 692 324 q 637 773 692 678 q 481 868 582 868 z "},"R":{"ha":839,"x_min":75,"x_max":819,"o":"m 75 0 l 75 1001 l 425 1001 q 497 1000 468 1001 q 549 996 525 999 q 646 965 601 989 q 723 903 690 940 q 774 817 756 865 q 792 715 792 769 q 745 557 792 624 q 611 460 699 490 l 819 0 l 611 0 l 433 422 l 265 422 l 265 0 l 75 0 m 265 847 l 265 572 l 418 572 q 507 579 476 572 q 560 604 538 586 q 594 650 581 622 q 607 710 607 678 q 576 798 607 763 q 493 840 546 833 q 458 846 476 844 q 418 847 439 847 l 265 847 z "},"S":{"ha":763,"x_min":4,"x_max":722,"o":"m 4 254 l 201 297 q 375 138 226 138 q 484 174 442 138 q 526 271 526 211 q 509 330 526 303 q 460 374 492 357 q 426 388 449 379 q 364 410 403 396 q 325 422 339 418 q 308 428 311 426 q 277 441 294 435 q 240 456 260 447 q 195 476 215 467 q 160 496 175 485 q 79 585 108 528 q 50 710 50 643 q 76 835 50 778 q 147 935 101 893 q 254 999 192 976 q 392 1022 317 1022 q 668 889 581 1022 q 694 835 686 861 q 710 758 703 808 l 532 715 q 483 824 521 786 q 383 863 444 863 q 283 826 322 863 q 243 736 243 790 q 278 658 243 690 q 315 635 293 644 q 358 618 329 629 q 413 599 386 607 l 468 581 q 545 550 506 568 q 613 514 585 532 q 693 422 664 479 q 722 297 722 364 q 695 169 722 228 q 620 69 668 111 q 506 2 572 26 q 364 -22 440 -22 q 57 122 160 -22 q 40 149 47 136 q 26 177 32 163 q 15 210 21 192 q 4 254 10 229 z "},"T":{"ha":699,"x_min":-15,"x_max":714,"o":"m -15 833 l -15 1001 l 714 1001 l 714 833 l 449 833 l 449 0 l 257 0 l 257 833 l -15 833 z "},"U":{"ha":867,"x_min":75,"x_max":792,"o":"m 792 1001 l 792 333 q 776 206 792 264 q 731 113 763 154 q 656 42 700 71 q 555 -3 611 13 q 433 -19 499 -19 q 284 6 354 -19 q 165 78 214 32 q 75 333 75 164 l 75 1001 l 264 1001 l 264 351 q 267 294 264 319 q 272 253 269 269 q 327 170 283 200 q 433 140 371 140 q 507 153 474 140 q 563 190 540 167 q 581 216 574 203 q 594 248 589 229 q 601 292 599 267 q 603 351 603 317 l 603 1001 l 792 1001 z "},"V":{"ha":742,"x_min":-35,"x_max":778,"o":"m -35 1001 l 172 1001 l 346 407 q 357 366 353 383 q 365 332 361 349 q 370 297 368 315 q 375 253 372 278 q 388 321 383 297 q 400 365 393 344 l 413 407 l 588 1001 l 778 1001 l 467 0 l 275 0 l -35 1001 z "},"W":{"ha":1193,"x_min":-4,"x_max":1199,"o":"m -4 1001 l 196 1001 l 321 447 q 324 433 322 443 q 329 396 325 422 l 339 329 l 349 271 q 351 322 350 300 q 355 362 353 343 q 360 401 357 381 q 371 447 364 421 l 497 1001 l 707 1001 l 832 447 q 837 421 835 432 q 842 396 839 410 q 847 368 844 381 q 850 343 849 356 q 853 316 851 331 q 857 282 854 301 q 863 352 861 329 q 871 394 865 375 l 885 447 l 1008 1001 l 1199 1001 l 929 0 l 751 0 l 619 568 l 610 613 q 602 653 606 632 q 596 711 599 674 q 589 657 592 676 q 581 613 586 638 q 576 588 578 600 q 572 568 575 575 l 440 0 l 249 0 l -4 1001 z "},"X":{"ha":803,"x_min":-15,"x_max":818,"o":"m -15 0 l 300 518 l 26 1001 l 249 1001 l 376 775 q 383 761 381 768 q 390 744 386 754 q 406 700 401 718 q 415 647 410 682 q 421 678 418 665 q 426 703 424 692 q 433 724 429 714 q 442 744 436 733 q 457 774 447 758 l 592 1001 l 803 1001 l 517 532 l 818 0 l 599 0 l 444 274 q 436 288 440 281 q 429 303 432 296 q 416 342 421 325 q 407 390 411 358 q 394 337 399 354 q 378 303 389 319 l 360 274 l 201 0 l -15 0 z "},"Y":{"ha":757,"x_min":-35,"x_max":792,"o":"m -35 1001 l 183 1001 l 347 678 q 371 619 364 644 q 385 553 378 594 q 401 620 392 594 q 426 678 411 646 l 589 1001 l 792 1001 l 474 413 l 474 0 l 281 0 l 281 413 l -35 1001 z "},"Z":{"ha":721,"x_min":29,"x_max":692,"o":"m 29 0 l 29 138 l 432 775 q 448 799 443 793 q 458 813 453 806 q 476 833 467 824 q 506 858 486 843 q 442 849 469 851 q 388 847 414 847 l 40 847 l 40 1001 l 692 1001 l 692 854 l 301 229 q 280 196 289 208 q 263 174 271 183 q 246 157 256 165 q 222 138 236 149 q 292 147 263 144 q 353 149 321 149 l 681 149 l 681 0 l 29 0 z "},"[":{"ha":315,"x_min":75,"x_max":300,"o":"m 75 -199 l 75 1136 l 300 1136 l 300 983 l 247 983 l 247 -44 l 300 -44 l 300 -199 l 75 -199 z "},"\\":{"ha":465,"x_min":53,"x_max":378,"o":"m 53 1000 l 203 1000 l 378 0 l 228 0 l 53 1000 z "},"]":{"ha":315,"x_min":15,"x_max":240,"o":"m 15 -199 l 15 -44 l 68 -44 l 68 983 l 15 983 l 15 1136 l 240 1136 l 240 -199 l 15 -199 z "},"^":{"ha":481,"x_min":4,"x_max":476,"o":"m 4 833 l 71 1007 l 410 1007 l 476 833 l 307 833 l 240 1001 l 175 833 l 4 833 z "},"_":{"ha":654,"x_min":53,"x_max":553,"o":"m 53 -50 l 53 0 l 553 0 l 553 -50 l 53 -50 z "},"`":{"ha":289,"x_min":4,"x_max":254,"o":"m 4 1019 l 189 1019 l 254 844 l 69 844 l 4 1019 z "},"a":{"ha":744,"x_min":40,"x_max":693,"o":"m 492 499 l 492 556 q 465 637 492 611 q 378 663 438 663 q 242 558 269 663 l 75 589 q 181 743 107 693 q 381 793 256 793 q 606 726 528 793 q 657 651 642 696 q 672 531 672 606 l 672 192 q 673 128 672 153 q 676 83 674 103 q 682 44 678 63 q 693 0 686 26 l 518 0 l 501 82 q 271 -19 390 -19 q 178 -3 221 -19 q 106 42 136 13 q 58 111 75 71 q 40 200 40 151 q 79 328 40 271 q 190 418 118 385 q 269 449 226 435 q 364 474 313 463 q 394 479 376 476 q 444 489 413 482 l 492 499 m 493 228 l 493 363 q 470 357 478 358 q 456 354 463 356 q 435 350 447 353 q 408 344 424 347 q 378 337 392 340 q 356 331 365 333 q 224 201 224 290 q 249 136 224 161 q 315 111 275 111 q 372 122 343 111 q 428 151 400 132 q 474 193 456 172 q 493 228 493 214 z "},"b":{"ha":790,"x_min":63,"x_max":743,"o":"m 63 0 q 68 52 67 33 q 71 94 69 71 q 73 151 72 122 q 74 215 74 181 l 74 1081 l 256 1081 l 256 699 q 456 792 344 792 q 574 760 518 792 q 671 675 631 729 q 743 385 743 576 q 722 216 743 290 q 662 89 701 142 q 566 8 622 36 q 439 -19 510 -19 q 267 43 333 -19 q 252 58 258 51 q 238 81 246 65 l 214 0 l 63 0 m 256 554 l 256 215 q 317 140 278 167 q 404 113 356 113 q 522 181 482 113 q 561 382 561 249 q 523 581 561 513 q 410 649 485 649 q 326 624 365 649 q 256 554 286 600 z "},"c":{"ha":722,"x_min":44,"x_max":696,"o":"m 693 542 l 531 508 q 485 619 521 581 q 393 658 450 658 q 275 585 317 658 q 233 378 233 513 q 274 178 233 247 q 392 108 315 108 q 535 264 507 108 l 696 229 q 589 44 669 110 q 386 -21 508 -21 q 244 6 307 -21 q 136 84 181 33 q 68 207 92 135 q 44 371 44 279 q 70 542 44 464 q 142 675 96 619 q 251 762 188 731 q 393 793 315 793 q 586 728 507 793 q 693 542 665 663 z "},"d":{"ha":792,"x_min":47,"x_max":728,"o":"m 538 706 l 538 1081 l 718 1081 l 718 185 q 718 134 718 156 q 719 92 718 113 q 723 49 721 71 q 728 0 725 28 l 569 0 l 551 88 q 339 -19 465 -19 q 218 8 272 -19 q 126 85 164 35 q 67 208 88 136 q 47 368 47 279 q 69 542 47 464 q 129 676 90 621 q 223 762 168 732 q 346 792 278 792 q 538 706 456 792 m 538 208 l 538 564 q 474 630 513 606 q 392 654 436 654 q 269 581 313 654 q 226 374 226 508 q 388 114 226 114 q 538 208 475 114 z "},"e":{"ha":749,"x_min":44,"x_max":706,"o":"m 704 347 l 225 347 l 225 328 q 270 171 225 231 q 390 111 315 111 q 540 240 503 111 l 701 207 q 581 38 661 96 q 385 -19 501 -19 q 242 8 306 -19 q 135 87 179 36 q 68 210 92 138 q 44 375 44 283 q 69 547 44 469 q 138 678 93 624 q 246 763 183 733 q 385 793 308 793 q 537 758 468 793 q 642 660 606 722 q 688 538 671 611 q 706 394 706 464 q 706 373 706 385 q 704 347 706 361 m 383 661 q 277 610 317 661 q 231 464 238 558 l 525 464 q 487 608 525 556 q 383 661 449 661 z "},"f":{"ha":392,"x_min":-19,"x_max":438,"o":"m -19 633 l -19 771 l 103 771 l 103 849 q 164 1030 103 975 q 367 1085 225 1085 q 399 1085 383 1085 q 438 1082 415 1085 l 438 938 q 405 940 418 939 q 375 940 392 940 q 322 935 339 940 q 294 915 306 929 q 282 888 285 904 q 279 835 279 872 l 279 771 l 432 771 l 432 633 l 281 633 l 281 0 l 100 0 l 100 633 l -19 633 z "},"g":{"ha":733,"x_min":25,"x_max":758,"o":"m 138 39 q 78 85 99 56 q 57 151 57 115 q 90 237 57 199 q 188 303 124 275 q 157 313 168 308 q 136 325 146 318 q 79 401 100 353 q 58 508 58 450 q 81 621 58 569 q 145 710 104 672 q 243 768 186 747 q 368 789 300 789 q 558 729 485 789 q 707 808 610 808 q 726 807 718 808 q 749 803 733 806 l 749 669 q 722 679 733 676 q 692 682 710 682 q 654 676 669 682 q 619 660 639 671 q 657 586 646 622 q 668 507 668 550 q 646 399 668 449 q 584 315 624 350 q 490 260 544 279 q 371 240 435 240 q 325 242 344 240 q 272 254 306 244 q 217 201 217 235 q 250 165 217 175 q 372 150 283 154 l 451 146 q 550 138 513 143 q 622 124 588 133 q 722 56 685 104 q 758 -56 758 8 q 663 -214 758 -158 q 390 -269 567 -269 q 122 -224 218 -269 q 25 -96 25 -178 q 55 -15 25 -50 q 138 39 85 21 m 239 514 l 239 506 q 274 401 239 439 q 365 363 308 363 q 455 403 424 363 q 486 515 486 443 q 454 626 486 586 q 364 665 422 665 q 272 625 306 665 q 239 514 239 585 m 290 -7 q 264 -3 275 -4 q 231 1 253 -1 q 168 -75 168 -26 q 230 -131 168 -111 q 400 -151 292 -151 q 555 -133 500 -151 q 610 -79 610 -114 q 556 -25 610 -36 q 535 -21 544 -22 q 514 -19 526 -19 q 482 -17 501 -18 q 431 -15 463 -17 q 351 -12 385 -14 q 290 -7 317 -10 z "},"h":{"ha":769,"x_min":74,"x_max":696,"o":"m 74 0 l 74 1081 l 251 1081 l 251 674 q 365 764 310 736 q 485 792 421 792 q 643 725 585 792 q 683 649 671 693 q 696 535 696 606 l 696 0 l 515 0 l 515 504 q 515 544 515 529 q 513 571 515 560 q 478 630 507 607 q 413 653 450 653 q 256 550 333 653 l 256 0 l 74 0 z "},"i":{"ha":328,"x_min":74,"x_max":256,"o":"m 74 0 l 74 771 l 253 771 l 253 0 l 74 0 m 74 867 l 74 1081 l 256 1081 l 256 867 l 74 867 z "},"j":{"ha":331,"x_min":-60,"x_max":257,"o":"m -60 -267 l -60 -128 q -37 -130 -44 -129 q -12 -131 -29 -131 q 36 -125 19 -131 q 63 -106 53 -119 q 73 -76 71 -94 q 75 -4 75 -57 l 75 771 l 257 771 l 257 -3 q 255 -72 257 -43 q 249 -121 253 -100 q 237 -158 244 -142 q 217 -190 229 -174 q 132 -251 188 -232 q -21 -269 76 -269 q -37 -268 -28 -269 q -60 -267 -47 -267 m 75 867 l 75 1081 l 256 1081 l 256 867 l 75 867 z "},"k":{"ha":699,"x_min":75,"x_max":733,"o":"m 75 0 l 75 1081 l 256 1081 l 256 449 l 499 771 l 704 771 l 471 494 l 733 0 l 533 0 l 353 344 l 256 238 l 256 0 l 75 0 z "},"l":{"ha":328,"x_min":74,"x_max":254,"o":"m 74 0 l 74 1081 l 254 1081 l 254 0 l 74 0 z "},"m":{"ha":1228,"x_min":74,"x_max":1154,"o":"m 74 0 l 74 771 l 256 771 l 256 668 q 381 762 321 732 q 503 792 442 792 q 622 759 572 792 q 693 668 672 726 q 808 763 756 735 q 926 792 861 792 q 1032 769 982 792 q 1111 706 1082 746 q 1144 631 1135 674 q 1154 519 1154 589 l 1154 0 l 975 0 l 975 500 q 969 568 975 547 q 935 627 964 604 q 865 650 906 650 q 783 625 824 650 q 707 553 743 600 l 707 0 l 525 0 l 525 504 q 525 545 525 529 q 524 568 525 561 q 492 628 519 606 q 425 651 465 651 q 337 624 381 651 q 260 544 293 596 l 260 0 l 74 0 z "},"n":{"ha":769,"x_min":74,"x_max":697,"o":"m 74 0 l 74 771 l 253 771 l 253 672 q 369 764 315 736 q 481 792 422 792 q 578 771 533 792 q 651 711 624 750 q 686 633 675 679 q 697 517 697 588 l 697 0 l 515 0 l 515 493 q 515 536 515 525 q 514 554 515 547 q 481 617 508 593 q 414 640 454 640 q 333 615 375 640 q 253 540 290 589 l 253 0 l 74 0 z "},"o":{"ha":785,"x_min":47,"x_max":739,"o":"m 47 386 q 71 555 47 479 q 140 684 94 631 q 249 766 185 738 q 392 794 313 794 q 647 687 556 794 q 739 386 739 579 q 647 85 739 193 q 392 -22 556 -22 q 249 6 313 -22 q 140 88 185 35 q 71 216 94 140 q 47 386 47 292 m 392 664 q 235 386 235 664 q 273 176 235 243 q 392 108 311 108 q 549 386 549 108 q 392 664 549 664 z "},"p":{"ha":792,"x_min":74,"x_max":746,"o":"m 74 -251 l 74 771 l 254 771 l 254 693 q 353 768 304 744 q 460 792 403 792 q 578 763 525 792 q 668 681 631 733 q 726 552 706 628 q 746 383 746 476 q 726 215 746 289 q 667 88 706 140 q 575 7 629 35 q 453 -21 521 -21 q 253 81 329 -21 l 253 -251 l 74 -251 m 254 540 l 254 214 q 320 141 281 167 q 404 115 360 115 q 522 181 482 115 q 561 374 561 246 q 404 649 561 649 q 254 540 311 649 z "},"q":{"ha":800,"x_min":47,"x_max":738,"o":"m 554 703 l 571 771 l 738 771 q 732 722 735 739 q 728 686 729 706 q 725 635 725 661 q 725 572 725 608 l 725 -251 l 544 -251 l 544 72 q 447 2 494 24 q 340 -19 400 -19 q 219 9 274 -19 q 127 90 165 38 q 68 215 89 142 q 47 381 47 289 q 69 549 47 474 q 133 679 92 625 q 231 763 174 733 q 360 792 289 792 q 467 769 421 792 q 554 703 514 747 m 543 193 l 543 560 q 400 651 499 651 q 233 381 233 651 q 400 115 233 115 q 476 135 440 115 q 543 193 511 156 z "},"r":{"ha":515,"x_min":75,"x_max":540,"o":"m 75 0 l 75 771 l 260 771 l 260 610 q 508 793 371 793 q 522 792 515 793 q 540 790 529 792 l 540 613 q 515 616 524 615 q 496 617 506 617 q 401 597 444 617 q 324 540 357 576 q 274 456 292 504 q 256 351 256 407 l 256 0 l 75 0 z "},"s":{"ha":644,"x_min":19,"x_max":606,"o":"m 19 196 l 181 238 q 319 119 214 119 q 399 144 368 119 q 429 207 429 168 q 346 293 429 268 l 283 313 q 206 340 240 326 q 147 365 171 353 q 76 435 101 389 q 50 540 50 481 q 71 641 50 594 q 129 722 92 688 q 217 775 167 756 q 328 794 268 794 q 503 742 432 794 q 606 592 574 690 l 446 549 q 326 660 414 660 q 253 633 282 660 q 224 571 224 607 q 258 506 224 532 q 297 488 271 497 q 375 461 324 479 l 419 446 q 555 362 510 414 q 600 229 600 310 q 579 128 600 174 q 521 49 558 82 q 431 -1 483 17 q 314 -19 378 -19 q 19 196 82 -19 z "},"t":{"ha":440,"x_min":-15,"x_max":444,"o":"m -15 626 l -15 771 l 96 771 l 96 950 l 279 950 l 279 771 l 444 771 l 444 626 l 278 626 l 278 239 l 278 185 q 302 141 281 157 q 358 125 324 125 q 396 128 375 125 q 444 140 417 132 l 444 1 l 422 -4 q 387 -12 401 -10 q 362 -17 372 -15 q 342 -18 351 -18 q 319 -18 332 -18 q 142 47 199 -18 q 106 108 115 75 q 96 208 96 142 l 96 626 l -15 626 z "},"u":{"ha":764,"x_min":74,"x_max":692,"o":"m 511 104 q 282 -19 417 -19 q 188 0 231 -19 q 118 56 146 19 q 97 92 106 74 q 83 135 89 111 q 76 191 78 160 q 74 264 74 222 l 74 771 l 254 771 l 254 282 q 255 240 254 258 q 257 211 256 222 q 285 153 260 175 q 349 132 310 132 q 513 229 432 132 l 513 771 l 692 771 l 692 0 l 511 0 l 511 104 z "},"v":{"ha":647,"x_min":-19,"x_max":668,"o":"m -19 771 l 171 771 l 299 332 q 304 310 301 321 q 310 286 307 299 q 315 258 313 271 q 320 232 318 246 q 324 202 322 218 q 328 164 325 186 q 336 233 332 208 q 347 289 340 257 q 352 312 350 300 q 357 332 354 324 l 485 771 l 668 771 l 426 0 l 222 0 l -19 771 z "},"w":{"ha":1069,"x_min":-4,"x_max":1075,"o":"m -4 771 l 178 771 l 276 360 q 281 336 279 346 q 286 314 283 326 q 291 285 289 299 q 295 258 293 272 q 299 228 297 244 q 301 190 300 213 q 308 259 306 235 q 318 314 311 283 q 324 337 321 325 q 331 360 328 349 l 442 771 l 633 771 l 739 363 q 750 317 746 338 q 757 278 754 297 q 761 239 760 260 q 765 190 763 218 q 771 240 768 219 q 777 278 774 260 q 785 315 781 296 q 796 360 789 333 l 901 771 l 1075 771 l 857 0 l 667 0 l 561 408 q 553 440 556 428 q 549 460 551 453 q 543 485 546 472 q 538 512 540 497 q 535 544 536 526 q 532 586 533 561 q 526 535 529 557 q 520 494 524 513 q 513 455 517 475 q 501 410 508 435 l 389 0 l 200 0 l -4 771 z "},"x":{"ha":697,"x_min":-15,"x_max":711,"o":"m -15 0 l 238 401 l 8 771 l 228 771 l 313 610 q 329 576 322 590 q 340 549 336 563 q 347 519 344 535 q 351 481 349 503 q 357 519 354 503 q 364 549 360 535 q 375 576 368 563 q 392 610 382 590 l 476 771 l 685 771 l 458 410 l 711 0 l 492 0 l 386 196 l 367 231 q 351 273 356 251 q 344 335 347 294 q 335 273 340 294 q 321 233 331 251 l 300 196 l 193 0 l -15 0 z "},"y":{"ha":663,"x_min":-25,"x_max":688,"o":"m -25 771 l 168 771 l 297 368 q 308 333 306 342 q 314 314 311 324 q 328 253 324 282 q 335 171 332 224 q 344 258 339 228 q 357 314 349 288 l 374 367 l 496 771 l 688 771 l 393 -69 q 375 -112 386 -90 q 351 -155 364 -135 q 326 -192 339 -175 q 300 -218 313 -208 q 228 -256 272 -243 q 132 -269 183 -269 q 72 -267 104 -269 q -3 -260 39 -264 l 0 -125 q 49 -134 28 -132 q 92 -136 69 -136 q 145 -128 122 -136 q 187 -103 168 -121 q 221 -55 206 -85 q 251 19 236 -25 l -25 771 z "},"z":{"ha":664,"x_min":29,"x_max":636,"o":"m 29 0 l 29 117 l 371 588 q 387 609 382 603 q 394 619 392 615 q 409 633 401 626 q 432 649 417 639 q 384 642 403 643 q 331 640 365 640 l 53 640 l 53 771 l 636 771 l 636 651 l 311 204 q 295 183 303 193 q 279 165 288 172 q 261 147 269 154 q 236 125 253 139 q 300 133 272 131 q 354 135 328 135 l 636 135 l 636 0 l 29 0 z "},"{":{"ha":508,"x_min":53,"x_max":418,"o":"m 53 500 q 86 507 68 500 q 128 542 113 518 q 143 600 143 567 l 143 1046 q 175 1133 143 1101 q 267 1164 207 1164 l 418 1164 l 418 1074 l 400 1074 q 338 1058 354 1074 q 321 999 321 1042 l 321 621 q 301 555 321 585 q 247 510 281 525 q 210 500 231 503 q 247 490 231 499 q 301 445 281 475 q 321 379 321 415 l 321 1 q 338 -58 321 -42 q 400 -74 354 -74 l 418 -74 l 418 -164 l 267 -164 q 175 -133 207 -164 q 143 -46 143 -101 l 143 400 q 117 471 143 443 q 53 500 92 499 z "},"|":{"ha":276,"x_min":53,"x_max":203,"o":"m 53 0 l 53 1000 l 203 1000 l 203 0 l 53 0 z "},"}":{"ha":508,"x_min":53,"x_max":418,"o":"m 53 -164 l 53 -74 l 69 -74 q 132 -58 115 -74 q 149 1 149 -42 l 149 379 q 169 445 149 415 q 224 490 189 475 q 260 500 239 497 q 224 510 239 503 q 169 555 189 525 q 149 621 149 585 l 149 999 q 132 1058 149 1042 q 69 1074 115 1074 l 53 1074 l 53 1164 l 203 1164 q 295 1133 263 1164 q 328 1046 328 1101 l 328 600 q 353 528 328 556 q 418 500 379 501 q 383 493 401 500 q 342 458 357 482 q 328 400 328 433 l 328 -46 q 295 -133 328 -101 q 203 -164 263 -164 l 53 -164 z "},"~":{"ha":522,"x_min":4,"x_max":517,"o":"m 4 1072 q 52 1213 7 1160 q 171 1265 97 1265 q 212 1260 188 1265 q 279 1240 236 1256 q 365 1221 338 1221 q 418 1261 408 1221 l 517 1261 q 468 1113 513 1165 q 347 1061 424 1061 q 286 1067 317 1061 q 203 1093 256 1074 q 173 1103 186 1100 q 151 1107 160 1107 q 108 1072 114 1107 l 4 1072 z "},"¡":{"ha":308,"x_min":64,"x_max":263,"o":"m 74 804 l 74 1001 l 263 1001 l 263 804 l 74 804 m 64 0 l 96 707 l 236 707 l 258 0 l 64 0 z "},"¢":{"ha":719,"x_min":44,"x_max":696,"o":"m 340 794 l 340 857 l 479 857 l 481 785 q 620 695 569 753 q 693 543 671 638 l 532 511 q 486 622 521 583 q 394 661 451 661 q 274 588 317 661 q 231 381 231 515 q 272 176 231 246 q 392 107 314 107 q 536 264 510 107 l 696 231 q 667 143 685 178 q 617 74 649 108 q 559 25 589 44 q 485 -11 529 6 l 485 -85 l 338 -85 l 338 -18 q 119 101 194 1 q 44 371 44 201 q 120 650 44 542 q 340 794 196 758 z "},"£":{"ha":717,"x_min":44,"x_max":671,"o":"m 44 0 l 44 133 q 63 133 56 133 q 74 132 69 132 q 247 300 247 132 q 242 373 247 340 q 224 449 238 406 l 44 449 l 44 586 l 144 586 l 126 615 q 100 660 110 642 q 85 694 90 679 q 79 725 81 710 q 78 761 78 740 q 101 865 78 817 q 165 948 124 913 q 263 1003 207 983 q 386 1022 319 1022 q 586 958 513 1022 q 671 775 660 894 l 483 775 q 375 886 463 886 q 305 856 332 886 q 278 779 278 826 q 298 694 278 738 q 367 586 318 650 l 597 586 l 597 450 l 424 450 q 438 396 435 418 q 440 346 440 374 q 431 283 440 313 q 403 225 422 254 q 374 189 388 203 q 331 153 360 175 l 665 153 l 665 0 l 44 0 z "},"¥":{"ha":919,"x_min":40,"x_max":878,"o":"m 40 1001 l 249 1001 l 411 699 q 430 659 422 676 q 443 624 438 642 q 451 588 449 607 q 457 542 454 568 q 465 604 461 582 q 481 653 469 626 q 491 676 486 664 q 503 699 496 688 l 679 1001 l 878 1001 l 615 533 l 842 533 l 842 450 l 569 450 l 549 418 l 549 386 l 840 386 l 840 307 l 547 307 l 549 0 l 353 0 l 353 308 l 85 308 l 85 390 l 356 390 l 353 418 l 335 450 l 86 450 l 86 536 l 290 536 l 40 1001 z "},"§":{"ha":872,"x_min":42,"x_max":828,"o":"m 193 600 q 133 675 153 636 q 114 763 114 714 q 138 867 114 819 q 207 947 163 914 q 313 999 251 981 q 449 1018 375 1018 q 583 998 522 1018 q 690 940 644 978 q 761 850 735 903 q 792 733 788 797 l 617 738 q 602 797 613 774 q 572 840 592 821 q 515 876 549 863 q 447 890 481 890 q 393 881 419 890 q 347 856 367 871 q 316 819 328 840 q 304 776 304 799 q 342 697 304 732 q 353 686 349 690 q 365 678 358 682 q 379 672 371 675 q 401 664 388 668 l 674 567 q 788 485 747 540 q 828 356 828 429 q 688 151 828 221 q 743 74 726 111 q 760 -7 760 38 q 735 -111 760 -64 q 667 -193 711 -158 q 563 -247 624 -228 q 431 -265 503 -265 q 289 -245 353 -265 q 178 -190 225 -225 q 105 -105 131 -154 q 79 3 79 -56 l 79 29 l 253 22 l 253 7 q 267 -51 253 -24 q 304 -97 281 -78 q 360 -128 328 -117 q 429 -140 392 -140 q 528 -108 489 -140 q 568 -24 568 -75 q 469 90 568 57 l 190 185 q 80 259 118 208 q 42 382 42 310 q 80 508 42 453 q 193 600 118 564 m 554 442 l 326 521 l 310 521 q 253 492 276 521 q 229 419 229 463 q 259 344 229 376 q 342 294 289 311 l 550 228 q 621 256 596 231 q 646 329 646 282 q 622 397 646 368 q 554 442 599 426 z "},"¨":{"ha":411,"x_min":-25,"x_max":438,"o":"m -25 835 l -25 1011 l 154 1011 l 154 835 l -25 835 m 257 835 l 257 1011 l 438 1011 l 438 835 l 257 835 z "},"©":{"ha":1294,"x_min":81,"x_max":1117,"o":"m 81 501 q 119 699 81 606 q 232 867 158 793 q 403 981 308 943 q 599 1018 499 1018 q 794 981 699 1018 q 965 867 889 943 q 1078 699 1039 793 q 1117 501 1117 606 q 1076 299 1117 393 q 965 134 1035 204 q 800 23 894 64 q 599 -18 706 -18 q 397 23 492 -18 q 233 134 303 64 q 122 299 163 204 q 81 501 81 393 m 163 501 q 196 331 163 413 q 292 186 229 250 q 435 89 354 121 q 599 57 515 57 q 763 90 682 57 q 906 186 843 122 q 1002 333 969 251 q 1035 501 1035 415 q 1002 668 1035 586 q 906 815 969 750 q 763 912 843 879 q 599 944 682 944 q 435 912 515 944 q 292 815 354 879 q 196 670 229 751 q 163 501 163 589 m 831 747 l 779 674 q 675 724 733 711 q 581 724 626 733 q 499 688 535 714 q 438 624 463 663 q 404 536 413 585 q 406 441 396 486 q 442 360 417 396 q 504 299 467 324 q 589 267 542 275 q 750 299 675 254 q 764 309 757 304 q 778 321 771 314 l 829 246 q 626 172 743 176 q 469 206 540 169 q 355 306 399 243 q 299 449 311 368 q 321 618 288 531 q 376 713 340 671 q 459 781 413 754 q 562 817 506 807 q 678 817 618 826 q 831 747 763 803 z "},"ª":{"ha":671,"x_min":47,"x_max":568,"o":"m 67 458 l 568 458 l 568 351 l 67 351 l 67 458 m 450 915 l 450 1000 l 567 1000 l 568 525 l 449 525 l 449 615 q 444 606 447 611 q 364 530 421 557 q 235 518 307 503 q 151 553 189 526 q 90 619 114 579 q 56 709 65 658 q 58 817 47 760 q 117 939 74 889 q 197 997 151 978 q 288 1016 242 1017 q 374 996 333 1015 q 438 938 414 976 l 444 926 l 450 915 m 174 764 q 174 749 174 757 q 176 735 175 742 q 214 658 185 688 q 288 619 243 628 q 342 621 317 615 q 412 659 383 629 q 449 735 440 689 q 449 794 456 764 q 412 869 440 839 q 343 910 383 900 q 286 910 314 915 q 236 890 258 906 q 198 849 214 874 q 176 793 182 825 q 174 778 175 786 q 174 764 174 771 z "},"«":{"ha":665,"x_min":44,"x_max":619,"o":"m 44 386 l 293 774 l 365 738 l 214 386 l 365 36 l 296 1 l 44 386 m 300 386 l 549 774 l 619 738 l 468 386 l 619 36 l 551 1 l 300 386 z "},"¬":{"ha":907,"x_min":53,"x_max":786,"o":"m 53 500 l 53 650 l 786 650 l 786 300 l 669 300 l 669 500 l 53 500 z "},"®":{"ha":1294,"x_min":81,"x_max":1117,"o":"m 81 501 q 119 699 81 606 q 232 867 158 793 q 403 981 308 943 q 599 1018 499 1018 q 794 981 699 1018 q 965 867 889 943 q 1078 699 1039 793 q 1117 501 1117 606 q 1076 299 1117 393 q 965 134 1035 204 q 800 23 894 64 q 599 -18 706 -18 q 397 23 492 -18 q 233 134 303 64 q 122 299 163 204 q 81 501 81 393 m 163 501 q 196 331 163 413 q 292 186 229 250 q 435 89 354 121 q 599 57 515 57 q 763 90 682 57 q 906 186 843 122 q 1002 333 969 251 q 1035 501 1035 415 q 1002 668 1035 586 q 906 815 969 750 q 763 912 843 879 q 599 944 682 944 q 435 912 515 944 q 292 815 354 879 q 196 670 229 751 q 163 501 163 589 m 425 194 l 425 818 l 593 818 q 680 810 650 818 q 736 782 710 801 q 796 683 783 746 q 774 544 811 600 q 667 475 738 489 q 649 474 660 474 l 835 194 l 717 194 l 525 492 l 525 194 l 425 194 m 525 529 l 576 529 q 665 556 635 529 q 697 631 696 582 q 670 708 700 681 q 582 736 640 736 l 525 736 l 525 529 z "},"±":{"ha":825,"x_min":61,"x_max":703,"o":"m 703 121 l 703 26 l 61 26 l 61 121 l 703 121 m 429 629 l 429 460 l 703 460 l 703 365 l 429 365 l 429 196 l 335 196 l 335 365 l 61 365 l 61 460 l 335 460 l 335 629 l 429 629 z "},"´":{"ha":311,"x_min":56,"x_max":304,"o":"m 56 840 l 119 1017 l 304 1017 l 240 840 l 56 840 z "},"µ":{"ha":865,"x_min":101,"x_max":775,"o":"m 231 624 l 231 213 q 250 81 231 114 q 319 47 268 47 q 451 158 399 46 q 504 443 504 272 l 504 624 l 632 624 l 632 168 q 644 76 632 106 q 685 47 657 49 q 729 76 713 47 q 744 161 744 104 l 744 181 l 774 181 q 775 168 774 174 l 775 150 q 742 29 775 72 q 650 -12 710 -12 q 544 47 583 -14 q 508 226 511 103 q 424 46 476 103 q 289 -12 371 -10 q 188 24 228 -12 q 132 131 149 58 q 131 115 132 124 q 131 92 131 106 q 175 -104 129 6 q 219 -232 219 -212 q 204 -275 219 -260 q 161 -290 189 -290 q 115 -267 131 -292 q 101 -193 104 -247 q 102 -167 101 -186 q 104 -112 103 -147 q 106 -49 106 -79 q 107 11 107 -18 q 107 71 107 36 q 106 151 107 106 q 103 230 104 197 q 103 283 103 263 l 103 624 l 231 624 z "},"¶":{"ha":910,"x_min":53,"x_max":789,"o":"m 338 1000 l 789 1000 l 789 910 l 336 910 q 260 894 296 910 q 198 852 225 879 q 156 789 171 825 q 142 711 140 753 q 158 635 142 671 q 200 574 174 600 q 261 532 226 547 q 336 517 296 517 l 426 517 l 426 840 l 522 840 l 522 0 l 426 0 l 426 426 l 336 426 q 226 449 278 426 q 136 510 175 471 q 75 601 97 549 q 53 713 53 653 q 75 825 53 772 q 136 917 97 878 q 227 978 175 956 q 338 1000 279 1000 m 610 0 l 610 840 l 706 840 l 706 0 l 610 0 z "},"¸":{"ha":247,"x_min":35,"x_max":244,"o":"m 35 -296 l 86 -74 l 244 -74 l 125 -296 l 35 -296 z "},"º":{"ha":671,"x_min":53,"x_max":574,"o":"m 61 351 l 61 458 l 561 458 l 561 351 l 61 351 m 53 765 q 58 818 53 794 q 98 912 69 871 q 167 979 126 953 q 257 1015 207 1006 q 361 1015 307 1025 q 456 976 414 1004 q 526 907 499 947 q 563 816 553 867 q 563 711 574 765 q 474 566 543 622 q 310 510 406 510 q 208 530 256 510 q 126 584 161 550 q 72 665 92 618 q 53 765 53 711 m 171 765 q 171 751 171 758 q 174 738 171 744 q 210 661 181 692 q 282 621 239 631 q 339 620 311 614 q 389 642 367 626 q 426 681 411 657 q 447 736 442 706 q 427 849 458 800 q 339 908 396 897 q 254 900 297 918 q 174 793 186 869 q 171 779 171 786 q 171 765 171 772 z "},"»":{"ha":663,"x_min":44,"x_max":617,"o":"m 44 36 l 197 386 l 47 739 l 115 774 l 363 386 l 113 3 l 44 36 m 300 36 l 451 386 l 301 739 l 371 774 l 617 386 l 368 3 l 300 36 z "},"¿":{"ha":568,"x_min":25,"x_max":553,"o":"m 246 807 l 246 1001 l 438 1001 l 438 807 l 246 807 m 272 706 l 428 706 q 429 690 429 694 q 429 678 429 685 q 424 622 429 651 q 410 574 419 593 q 394 544 403 558 q 374 510 386 529 q 342 469 361 492 q 297 414 324 446 q 267 376 279 392 q 245 347 254 360 q 229 324 236 335 q 217 303 222 314 q 190 221 190 257 q 217 150 190 178 q 283 122 243 122 q 355 147 324 122 q 415 229 386 171 l 553 149 q 282 -22 456 -22 q 178 -5 225 -22 q 97 44 131 13 q 44 119 63 75 q 25 215 25 163 q 49 331 25 278 q 131 446 74 383 q 185 504 178 496 q 231 565 213 533 q 258 624 249 596 q 266 655 264 639 q 272 706 268 671 z "},"À":{"ha":774,"x_min":-31,"x_max":808,"o":"m -31 0 l 271 1001 l 514 1001 l 808 0 l 606 0 l 535 240 l 231 240 l 160 0 l -31 0 m 353 685 l 269 385 l 501 385 l 418 685 q 403 744 408 715 q 392 801 396 775 q 386 874 389 828 q 378 803 382 828 q 368 744 375 778 q 361 714 365 728 q 353 685 357 700 m 238 1299 l 422 1299 l 488 1124 l 303 1124 l 238 1299 z "},"Á":{"ha":774,"x_min":-31,"x_max":808,"o":"m -31 0 l 271 1001 l 514 1001 l 808 0 l 606 0 l 535 240 l 231 240 l 160 0 l -31 0 m 353 685 l 269 385 l 501 385 l 418 685 q 403 744 408 715 q 392 801 396 775 q 386 874 389 828 q 378 803 382 828 q 368 744 375 778 q 361 714 365 728 q 353 685 357 700 m 314 1119 l 378 1296 l 563 1296 l 499 1119 l 314 1119 z "},"Â":{"ha":774,"x_min":-31,"x_max":808,"o":"m -31 0 l 271 1001 l 514 1001 l 808 0 l 606 0 l 535 240 l 231 240 l 160 0 l -31 0 m 353 685 l 269 385 l 501 385 l 418 685 q 403 744 408 715 q 392 801 396 775 q 386 874 389 828 q 378 803 382 828 q 368 744 375 778 q 361 714 365 728 q 353 685 357 700 m 161 1113 l 228 1286 l 567 1286 l 633 1113 l 464 1113 l 397 1281 l 332 1113 l 161 1113 z "},"Ã":{"ha":774,"x_min":-31,"x_max":808,"o":"m -31 0 l 271 1001 l 514 1001 l 808 0 l 606 0 l 535 240 l 231 240 l 160 0 l -31 0 m 353 685 l 269 385 l 501 385 l 418 685 q 403 744 408 715 q 392 801 396 775 q 386 874 389 828 q 378 803 382 828 q 368 744 375 778 q 361 714 365 728 q 353 685 357 700 m 182 1118 q 228 1227 189 1189 q 332 1265 267 1265 q 369 1260 347 1265 q 429 1244 390 1256 q 508 1229 483 1229 q 560 1263 549 1229 l 642 1263 q 597 1150 635 1189 q 494 1111 560 1111 q 482 1113 488 1111 q 446 1116 465 1114 q 415 1121 426 1118 l 358 1138 q 331 1144 343 1142 q 311 1147 318 1147 q 283 1140 292 1147 q 269 1118 274 1133 l 182 1118 z "},"Ä":{"ha":789,"x_min":-25,"x_max":813,"o":"m -25 0 l 243 885 l 86 883 l 86 1081 l 283 1081 l 283 1003 l 514 1004 l 514 1081 l 710 1081 l 710 883 l 554 882 l 813 0 l 610 0 l 540 240 l 236 240 l 165 0 l -25 0 m 275 385 l 506 385 l 422 685 q 415 714 418 699 q 408 744 411 729 q 398 801 401 775 q 390 874 394 828 q 383 803 386 828 q 372 744 379 778 q 365 714 369 728 q 357 685 361 700 l 275 385 z "},"Å":{"ha":789,"x_min":-25,"x_max":813,"o":"m -25 0 l 276 1001 l 308 1003 q 240 1068 240 1035 q 252 1125 240 1099 q 284 1172 264 1151 q 331 1203 304 1192 q 389 1215 358 1215 q 444 1203 418 1215 q 490 1172 469 1192 q 521 1125 510 1151 q 532 1068 532 1099 q 467 1006 532 1036 l 518 1001 l 813 0 l 610 0 l 540 240 l 236 240 l 165 0 l -25 0 m 275 385 l 506 385 l 422 685 q 415 714 418 699 q 408 744 411 729 q 398 801 401 775 q 390 874 394 828 q 383 803 386 828 q 372 744 379 778 q 365 714 369 728 q 357 685 361 700 l 275 385 m 332 1067 q 349 1030 333 1044 q 386 1015 364 1015 q 422 1031 407 1015 q 438 1068 438 1046 q 422 1106 438 1089 q 388 1122 407 1122 q 348 1106 364 1122 q 332 1067 332 1089 z "},"Æ":{"ha":1186,"x_min":-56,"x_max":1161,"o":"m -56 0 l 444 1001 l 1154 1001 l 1154 840 l 722 840 l 722 588 l 1057 588 l 1057 431 l 722 431 l 722 158 l 1161 158 l 1161 0 l 533 0 l 533 239 l 257 239 l 142 0 l -56 0 m 533 828 l 329 396 l 533 396 l 533 828 z "},"Ç":{"ha":872,"x_min":47,"x_max":842,"o":"m 840 699 l 650 667 q 591 822 638 768 q 467 875 544 875 q 308 779 363 875 q 254 493 254 683 q 469 122 254 122 q 661 338 631 122 l 842 314 q 713 65 810 150 q 463 -19 615 -19 q 290 16 367 -19 q 158 117 213 51 q 76 276 104 182 q 47 489 47 371 q 77 710 47 611 q 162 877 107 808 q 294 983 217 946 q 469 1021 372 1021 q 627 990 553 1021 q 751 900 701 958 q 806 813 786 860 q 840 699 826 765 m 317 -264 l 368 -42 l 526 -42 l 407 -264 l 317 -264 z "},"È":{"ha":744,"x_min":75,"x_max":721,"o":"m 75 0 l 75 1001 l 697 1001 l 697 839 l 265 839 l 265 589 l 617 589 l 617 431 l 265 431 l 265 156 l 721 156 l 721 0 l 75 0 m 240 1299 l 425 1299 l 490 1124 l 306 1124 l 240 1299 z "},"É":{"ha":744,"x_min":75,"x_max":721,"o":"m 75 0 l 75 1001 l 697 1001 l 697 839 l 265 839 l 265 589 l 617 589 l 617 431 l 265 431 l 265 156 l 721 156 l 721 0 l 75 0 m 301 1119 l 365 1296 l 550 1296 l 486 1119 l 301 1119 z "},"Ê":{"ha":744,"x_min":75,"x_max":721,"o":"m 75 0 l 75 1001 l 697 1001 l 697 839 l 265 839 l 265 589 l 617 589 l 617 431 l 265 431 l 265 156 l 721 156 l 721 0 l 75 0 m 149 1113 l 215 1286 l 554 1286 l 621 1113 l 451 1113 l 385 1281 l 319 1113 l 149 1113 z "},"Ë":{"ha":744,"x_min":75,"x_max":721,"o":"m 75 0 l 75 1001 l 697 1001 l 697 839 l 265 839 l 265 589 l 617 589 l 617 431 l 265 431 l 265 156 l 721 156 l 721 0 l 75 0 m 149 1114 l 149 1290 l 328 1290 l 328 1114 l 149 1114 m 431 1114 l 431 1290 l 611 1290 l 611 1114 l 431 1114 z "},"Ì":{"ha":342,"x_min":14,"x_max":267,"o":"m 75 0 l 75 1001 l 267 1001 l 267 0 l 75 0 m 14 1299 l 199 1299 l 264 1124 l 79 1124 l 14 1299 z "},"Í":{"ha":342,"x_min":75,"x_max":331,"o":"m 75 0 l 75 1001 l 267 1001 l 267 0 l 75 0 m 82 1119 l 146 1296 l 331 1296 l 267 1119 l 82 1119 z "},"Î":{"ha":342,"x_min":-57,"x_max":415,"o":"m 75 0 l 75 1001 l 267 1001 l 267 0 l 75 0 m -57 1113 l 10 1286 l 349 1286 l 415 1113 l 246 1113 l 179 1281 l 114 1113 l -57 1113 z "},"Ï":{"ha":342,"x_min":-53,"x_max":410,"o":"m 75 0 l 75 1001 l 267 1001 l 267 0 l 75 0 m -53 1114 l -53 1290 l 126 1290 l 126 1114 l -53 1114 m 229 1114 l 229 1290 l 410 1290 l 410 1114 l 229 1114 z "},"Ñ":{"ha":949,"x_min":76,"x_max":872,"o":"m 76 0 l 76 1001 l 300 1001 l 635 389 q 643 373 638 385 q 656 344 649 361 q 666 319 661 331 q 676 298 671 308 q 685 275 681 288 q 697 246 690 263 q 690 289 693 271 q 686 324 688 307 q 684 359 685 340 q 683 403 683 378 l 683 1001 l 872 1001 l 872 0 l 647 0 l 311 614 l 285 660 q 265 697 274 678 q 242 753 257 717 q 251 698 249 717 q 256 651 254 679 q 258 624 257 636 q 258 599 258 613 l 258 0 l 76 0 m 271 1118 q 317 1227 278 1189 q 421 1265 356 1265 q 458 1260 436 1265 q 518 1244 479 1256 q 597 1229 572 1229 q 649 1263 638 1229 l 731 1263 q 686 1150 724 1189 q 583 1111 649 1111 q 571 1113 576 1111 q 535 1116 554 1114 q 504 1121 515 1118 l 447 1138 q 419 1144 432 1142 q 400 1147 407 1147 q 372 1140 381 1147 q 358 1118 363 1133 l 271 1118 z "},"Ò":{"ha":944,"x_min":47,"x_max":896,"o":"m 47 500 q 76 719 47 622 q 160 885 106 817 q 294 988 215 953 q 471 1024 372 1024 q 650 988 571 1024 q 783 885 729 953 q 867 719 838 817 q 896 500 896 622 q 867 281 896 378 q 783 116 838 183 q 650 13 729 49 q 471 -22 571 -22 q 294 13 372 -22 q 160 116 215 49 q 76 281 106 183 q 47 500 47 378 m 308 785 q 287 733 296 761 q 272 672 278 706 q 263 596 265 638 q 260 500 260 554 q 272 328 260 393 q 308 215 283 263 q 375 147 332 171 q 471 122 418 122 q 569 147 525 122 q 636 215 613 172 q 674 328 663 264 q 685 500 685 393 q 673 672 685 607 q 636 785 661 738 q 569 853 613 829 q 471 878 525 878 q 375 853 418 878 q 308 785 332 829 m 318 1299 l 503 1299 l 568 1124 l 383 1124 l 318 1299 z "},"Ó":{"ha":944,"x_min":47,"x_max":896,"o":"m 47 500 q 76 719 47 622 q 160 885 106 817 q 294 988 215 953 q 471 1024 372 1024 q 650 988 571 1024 q 783 885 729 953 q 867 719 838 817 q 896 500 896 622 q 867 281 896 378 q 783 116 838 183 q 650 13 729 49 q 471 -22 571 -22 q 294 13 372 -22 q 160 116 215 49 q 76 281 106 183 q 47 500 47 378 m 308 785 q 287 733 296 761 q 272 672 278 706 q 263 596 265 638 q 260 500 260 554 q 272 328 260 393 q 308 215 283 263 q 375 147 332 171 q 471 122 418 122 q 569 147 525 122 q 636 215 613 172 q 674 328 663 264 q 685 500 685 393 q 673 672 685 607 q 636 785 661 738 q 569 853 613 829 q 471 878 525 878 q 375 853 418 878 q 308 785 332 829 m 390 1119 l 454 1296 l 639 1296 l 575 1119 l 390 1119 z "},"Ô":{"ha":944,"x_min":47,"x_max":896,"o":"m 47 500 q 76 719 47 622 q 160 885 106 817 q 294 988 215 953 q 471 1024 372 1024 q 650 988 571 1024 q 783 885 729 953 q 867 719 838 817 q 896 500 896 622 q 867 281 896 378 q 783 116 838 183 q 650 13 729 49 q 471 -22 571 -22 q 294 13 372 -22 q 160 116 215 49 q 76 281 106 183 q 47 500 47 378 m 308 785 q 287 733 296 761 q 272 672 278 706 q 263 596 265 638 q 260 500 260 554 q 272 328 260 393 q 308 215 283 263 q 375 147 332 171 q 471 122 418 122 q 569 147 525 122 q 636 215 613 172 q 674 328 663 264 q 685 500 685 393 q 673 672 685 607 q 636 785 661 738 q 569 853 613 829 q 471 878 525 878 q 375 853 418 878 q 308 785 332 829 m 239 1113 l 306 1286 l 644 1286 l 711 1113 l 542 1113 l 475 1281 l 410 1113 l 239 1113 z "},"Õ":{"ha":944,"x_min":47,"x_max":896,"o":"m 47 500 q 76 719 47 622 q 160 885 106 817 q 294 988 215 953 q 471 1024 372 1024 q 650 988 571 1024 q 783 885 729 953 q 867 719 838 817 q 896 500 896 622 q 867 281 896 378 q 783 116 838 183 q 650 13 729 49 q 471 -22 571 -22 q 294 13 372 -22 q 160 116 215 49 q 76 281 106 183 q 47 500 47 378 m 308 785 q 287 733 296 761 q 272 672 278 706 q 263 596 265 638 q 260 500 260 554 q 272 328 260 393 q 308 215 283 263 q 375 147 332 171 q 471 122 418 122 q 569 147 525 122 q 636 215 613 172 q 674 328 663 264 q 685 500 685 393 q 673 672 685 607 q 636 785 661 738 q 569 853 613 829 q 471 878 525 878 q 375 853 418 878 q 308 785 332 829 m 267 1118 q 313 1227 274 1189 q 417 1265 351 1265 q 453 1260 432 1265 q 514 1244 475 1256 q 593 1229 568 1229 q 644 1263 633 1229 l 726 1263 q 682 1150 719 1189 q 579 1111 644 1111 q 567 1113 572 1111 q 531 1116 550 1114 q 500 1121 511 1118 l 443 1138 q 415 1144 428 1142 q 396 1147 403 1147 q 367 1140 376 1147 q 354 1118 358 1133 l 267 1118 z "},"Ö":{"ha":944,"x_min":47,"x_max":896,"o":"m 164 889 l 96 888 l 96 1081 l 285 1081 l 289 982 q 331 1003 311 994 q 372 1016 350 1011 q 419 1022 393 1021 q 483 1024 446 1024 q 535 1022 513 1024 q 579 1015 558 1019 q 619 1001 600 1010 q 660 979 639 992 l 658 1081 l 849 1081 l 849 888 l 781 888 q 808 845 796 864 q 831 808 819 826 q 879 673 863 753 q 896 501 896 593 q 867 281 896 378 q 783 117 838 185 q 650 13 729 49 q 471 -22 571 -22 q 292 13 371 -22 q 160 117 214 49 q 76 281 106 185 q 47 501 47 378 q 55 620 47 563 q 79 731 63 678 q 108 800 89 765 q 164 889 126 835 m 260 500 q 271 328 260 393 q 308 215 282 264 q 375 147 332 172 q 471 122 418 122 q 569 147 525 122 q 636 215 613 171 q 673 328 661 263 q 685 500 685 393 q 682 596 685 554 q 673 672 679 638 q 658 733 667 706 q 636 785 649 761 q 569 853 613 829 q 471 878 525 878 q 375 853 418 878 q 308 785 332 829 q 272 672 283 738 q 260 500 260 607 z "},"×":{"ha":772,"x_min":82,"x_max":689,"o":"m 82 310 l 272 497 l 88 682 l 201 794 l 386 610 l 575 799 l 689 685 l 500 496 l 683 313 l 569 199 l 388 382 l 199 193 l 82 310 z "},"Ø":{"ha":968,"x_min":44,"x_max":924,"o":"m 44 35 l 143 149 q 119 186 131 168 q 100 219 108 204 q 58 342 72 269 q 44 504 44 414 q 74 721 44 625 q 160 884 104 817 q 297 988 217 951 q 478 1024 378 1024 q 783 903 667 1024 l 867 999 l 924 956 l 831 842 q 864 778 853 804 q 900 652 888 725 q 913 499 913 579 q 883 280 913 376 q 797 116 853 183 q 660 13 740 49 q 478 -24 579 -24 q 396 -18 433 -24 q 324 1 358 -12 q 258 35 290 14 q 190 88 225 57 l 104 -17 l 44 35 m 674 668 l 322 239 q 383 160 342 189 q 481 132 425 132 q 635 228 581 132 q 690 501 690 324 q 690 547 690 526 q 687 587 689 568 q 682 625 685 606 q 674 668 679 644 m 297 321 l 650 756 q 576 841 615 814 q 489 868 538 868 q 357 809 410 868 q 289 646 304 750 q 279 567 282 608 q 276 486 276 525 q 277 438 276 458 q 281 400 278 418 q 287 363 283 382 q 297 321 290 344 z "},"Ù":{"ha":867,"x_min":75,"x_max":792,"o":"m 792 1001 l 792 333 q 776 206 792 264 q 731 113 763 154 q 656 42 700 71 q 555 -3 611 13 q 433 -19 499 -19 q 284 6 354 -19 q 165 78 214 32 q 75 333 75 164 l 75 1001 l 264 1001 l 264 351 q 267 294 264 319 q 272 253 269 269 q 327 170 283 200 q 433 140 371 140 q 507 153 474 140 q 563 190 540 167 q 581 216 574 203 q 594 248 589 229 q 601 292 599 267 q 603 351 603 317 l 603 1001 l 792 1001 m 303 1299 l 488 1299 l 553 1124 l 368 1124 l 303 1299 z "},"Ú":{"ha":867,"x_min":75,"x_max":792,"o":"m 792 1001 l 792 333 q 776 206 792 264 q 731 113 763 154 q 656 42 700 71 q 555 -3 611 13 q 433 -19 499 -19 q 284 6 354 -19 q 165 78 214 32 q 75 333 75 164 l 75 1001 l 264 1001 l 264 351 q 267 294 264 319 q 272 253 269 269 q 327 170 283 200 q 433 140 371 140 q 507 153 474 140 q 563 190 540 167 q 581 216 574 203 q 594 248 589 229 q 601 292 599 267 q 603 351 603 317 l 603 1001 l 792 1001 m 357 1119 l 421 1296 l 606 1296 l 542 1119 l 357 1119 z "},"Û":{"ha":867,"x_min":75,"x_max":792,"o":"m 792 1001 l 792 333 q 776 206 792 264 q 731 113 763 154 q 656 42 700 71 q 555 -3 611 13 q 433 -19 499 -19 q 284 6 354 -19 q 165 78 214 32 q 75 333 75 164 l 75 1001 l 264 1001 l 264 351 q 267 294 264 319 q 272 253 269 269 q 327 170 283 200 q 433 140 371 140 q 507 153 474 140 q 563 190 540 167 q 581 216 574 203 q 594 248 589 229 q 601 292 599 267 q 603 351 603 317 l 603 1001 l 792 1001 m 215 1113 l 282 1286 l 621 1286 l 688 1113 l 518 1113 l 451 1281 l 386 1113 l 215 1113 z "},"Ü":{"ha":867,"x_min":75,"x_max":792,"o":"m 792 1001 l 792 333 q 776 206 792 264 q 731 113 763 154 q 656 42 700 71 q 555 -3 611 13 q 433 -19 499 -19 q 284 6 354 -19 q 165 78 214 32 q 75 333 75 164 l 75 1001 l 190 1006 l 192 1081 l 383 1081 l 383 888 l 267 888 l 264 351 q 272 253 264 288 q 327 170 283 200 q 433 140 371 140 q 507 153 474 140 q 563 190 540 167 q 594 248 585 214 q 603 351 603 282 l 600 888 l 483 888 l 483 1081 l 674 1081 l 678 1004 l 792 1001 z "},"ß":{"ha":769,"x_min":75,"x_max":735,"o":"m 75 0 l 75 813 q 92 933 75 888 q 191 1056 118 1011 q 360 1100 264 1100 q 469 1082 419 1100 q 555 1031 519 1064 q 610 953 590 999 q 629 853 629 908 q 515 665 629 721 q 735 347 735 639 q 659 75 735 169 q 443 -19 583 -19 q 403 -17 421 -19 q 354 -6 386 -14 l 354 142 q 383 135 374 136 q 407 133 393 133 q 517 185 482 133 q 553 346 553 238 q 365 588 553 588 q 358 587 363 588 q 347 586 354 586 l 347 717 q 438 751 406 719 q 471 839 471 783 q 443 920 471 890 q 368 950 415 950 q 319 941 342 950 q 281 913 296 932 q 261 870 267 894 q 256 790 256 846 l 256 0 l 75 0 z "},"à":{"ha":744,"x_min":40,"x_max":693,"o":"m 492 499 l 492 556 q 465 637 492 611 q 378 663 438 663 q 242 558 269 663 l 75 589 q 181 743 107 693 q 381 793 256 793 q 606 726 528 793 q 657 651 642 696 q 672 531 672 606 l 672 192 q 673 128 672 153 q 676 83 674 103 q 682 44 678 63 q 693 0 686 26 l 518 0 l 501 82 q 271 -19 390 -19 q 178 -3 221 -19 q 106 42 136 13 q 58 111 75 71 q 40 200 40 151 q 79 328 40 271 q 190 418 118 385 q 269 449 226 435 q 364 474 313 463 q 394 479 376 476 q 444 489 413 482 l 492 499 m 493 228 l 493 363 q 470 357 478 358 q 456 354 463 356 q 435 350 447 353 q 408 344 424 347 q 378 337 392 340 q 356 331 365 333 q 224 201 224 290 q 249 136 224 161 q 315 111 275 111 q 372 122 343 111 q 428 151 400 132 q 474 193 456 172 q 493 228 493 214 m 221 1019 l 406 1019 l 471 844 l 286 844 l 221 1019 z "},"á":{"ha":744,"x_min":40,"x_max":693,"o":"m 492 499 l 492 556 q 465 637 492 611 q 378 663 438 663 q 242 558 269 663 l 75 589 q 181 743 107 693 q 381 793 256 793 q 606 726 528 793 q 657 651 642 696 q 672 531 672 606 l 672 192 q 673 128 672 153 q 676 83 674 103 q 682 44 678 63 q 693 0 686 26 l 518 0 l 501 82 q 271 -19 390 -19 q 178 -3 221 -19 q 106 42 136 13 q 58 111 75 71 q 40 200 40 151 q 79 328 40 271 q 190 418 118 385 q 269 449 226 435 q 364 474 313 463 q 394 479 376 476 q 444 489 413 482 l 492 499 m 493 228 l 493 363 q 470 357 478 358 q 456 354 463 356 q 435 350 447 353 q 408 344 424 347 q 378 337 392 340 q 356 331 365 333 q 224 201 224 290 q 249 136 224 161 q 315 111 275 111 q 372 122 343 111 q 428 151 400 132 q 474 193 456 172 q 493 228 493 214 m 288 840 l 351 1017 l 536 1017 l 472 840 l 288 840 z "},"â":{"ha":744,"x_min":40,"x_max":693,"o":"m 492 499 l 492 556 q 465 637 492 611 q 378 663 438 663 q 242 558 269 663 l 75 589 q 181 743 107 693 q 381 793 256 793 q 606 726 528 793 q 657 651 642 696 q 672 531 672 606 l 672 192 q 673 128 672 153 q 676 83 674 103 q 682 44 678 63 q 693 0 686 26 l 518 0 l 501 82 q 271 -19 390 -19 q 178 -3 221 -19 q 106 42 136 13 q 58 111 75 71 q 40 200 40 151 q 79 328 40 271 q 190 418 118 385 q 269 449 226 435 q 364 474 313 463 q 394 479 376 476 q 444 489 413 482 l 492 499 m 493 228 l 493 363 q 470 357 478 358 q 456 354 463 356 q 435 350 447 353 q 408 344 424 347 q 378 337 392 340 q 356 331 365 333 q 224 201 224 290 q 249 136 224 161 q 315 111 275 111 q 372 122 343 111 q 428 151 400 132 q 474 193 456 172 q 493 228 493 214 m 140 833 l 207 1007 l 546 1007 l 613 833 l 443 833 l 376 1001 l 311 833 l 140 833 z "},"ã":{"ha":744,"x_min":40,"x_max":693,"o":"m 492 499 l 492 556 q 465 637 492 611 q 378 663 438 663 q 242 558 269 663 l 75 589 q 181 743 107 693 q 381 793 256 793 q 606 726 528 793 q 657 651 642 696 q 672 531 672 606 l 672 192 q 673 128 672 153 q 676 83 674 103 q 682 44 678 63 q 693 0 686 26 l 518 0 l 501 82 q 271 -19 390 -19 q 178 -3 221 -19 q 106 42 136 13 q 58 111 75 71 q 40 200 40 151 q 79 328 40 271 q 190 418 118 385 q 269 449 226 435 q 364 474 313 463 q 394 479 376 476 q 444 489 413 482 l 492 499 m 493 228 l 493 363 q 470 357 478 358 q 456 354 463 356 q 435 350 447 353 q 408 344 424 347 q 378 337 392 340 q 356 331 365 333 q 224 201 224 290 q 249 136 224 161 q 315 111 275 111 q 372 122 343 111 q 428 151 400 132 q 474 193 456 172 q 493 228 493 214 m 168 839 q 214 948 175 910 q 318 986 253 986 q 355 981 333 986 q 415 965 376 976 q 494 950 469 950 q 546 983 535 950 l 628 983 q 583 871 621 910 q 481 832 546 832 q 468 833 474 832 q 432 837 451 835 q 401 842 413 839 l 344 858 q 317 865 329 863 q 297 868 304 868 q 269 861 278 868 q 256 839 260 854 l 168 839 z "},"ä":{"ha":744,"x_min":40,"x_max":693,"o":"m 492 499 l 492 556 q 465 637 492 611 q 378 663 438 663 q 242 558 269 663 l 75 589 q 181 743 107 693 q 381 793 256 793 q 606 726 528 793 q 657 651 642 696 q 672 531 672 606 l 672 192 q 673 128 672 153 q 676 83 674 103 q 682 44 678 63 q 693 0 686 26 l 518 0 l 501 82 q 271 -19 390 -19 q 178 -3 221 -19 q 106 42 136 13 q 58 111 75 71 q 40 200 40 151 q 79 328 40 271 q 190 418 118 385 q 269 449 226 435 q 364 474 313 463 q 394 479 376 476 q 444 489 413 482 l 492 499 m 493 228 l 493 363 q 470 357 478 358 q 456 354 463 356 q 435 350 447 353 q 408 344 424 347 q 378 337 392 340 q 356 331 365 333 q 224 201 224 290 q 249 136 224 161 q 315 111 275 111 q 372 122 343 111 q 428 151 400 132 q 474 193 456 172 q 493 228 493 214 m 151 829 l 151 1006 l 331 1006 l 331 829 l 151 829 m 433 829 l 433 1006 l 614 1006 l 614 829 l 433 829 z "},"å":{"ha":744,"x_min":40,"x_max":693,"o":"m 492 499 l 492 551 q 465 631 492 606 q 378 656 438 656 q 290 631 325 656 q 242 554 254 606 l 75 585 q 181 739 107 689 q 381 789 256 789 q 606 722 526 789 q 657 647 642 692 q 672 524 672 601 l 672 192 q 673 127 672 153 q 676 82 674 101 q 682 44 678 63 q 693 0 686 25 l 518 0 l 501 82 q 271 -19 390 -19 q 178 -3 221 -19 q 106 42 136 13 q 58 111 75 71 q 40 200 40 151 q 79 328 40 271 q 192 418 118 385 q 269 448 228 433 q 364 474 311 463 q 393 479 378 476 q 444 489 408 482 l 492 499 m 249 963 q 288 1056 249 1018 q 383 1094 328 1094 q 433 1084 410 1094 q 475 1056 457 1074 q 503 1015 493 1039 q 514 963 514 990 q 503 911 514 935 q 475 870 493 888 q 433 842 457 853 q 383 832 410 832 q 331 842 356 832 q 288 870 307 853 q 259 911 269 888 q 249 963 249 935 m 493 363 q 367 333 418 349 q 283 299 315 318 q 238 256 251 281 q 224 201 224 232 q 249 136 224 161 q 315 111 274 111 q 372 122 343 111 q 428 151 400 132 q 474 193 456 172 q 493 228 493 214 l 493 363 m 321 963 q 339 922 321 939 q 381 906 357 906 q 422 922 404 906 q 439 963 439 939 q 422 1004 439 988 q 381 1021 404 1021 q 339 1003 357 1021 q 321 963 321 986 z "},"æ":{"ha":1168,"x_min":32,"x_max":1129,"o":"m 482 493 l 482 557 q 371 661 482 661 q 238 560 265 661 l 69 593 q 178 744 106 696 q 371 792 250 792 q 572 738 499 792 q 585 725 579 732 q 603 706 592 718 q 696 772 647 750 q 811 793 744 793 q 943 766 885 793 q 1042 689 1001 739 q 1105 567 1083 639 q 1126 406 1126 496 q 1126 383 1126 396 q 1125 353 1126 371 l 653 353 l 653 344 q 698 171 653 233 q 822 108 743 108 q 971 239 936 108 l 1129 204 q 1006 36 1085 93 q 818 -21 928 -21 q 661 17 729 -21 q 538 135 593 56 q 413 20 485 60 q 258 -19 340 -19 q 168 -3 210 -19 q 96 43 126 14 q 49 112 65 72 q 32 199 32 151 q 69 321 32 265 q 174 410 107 376 q 224 431 197 421 q 285 449 251 440 q 361 468 318 458 q 461 489 404 478 l 482 493 m 482 225 l 482 354 l 457 350 l 447 349 l 397 338 q 262 285 308 318 q 215 204 215 253 q 242 139 215 164 q 310 114 268 114 q 385 131 346 114 q 457 181 424 149 q 482 225 482 204 m 813 664 q 706 611 746 664 q 658 463 665 558 l 957 463 q 919 611 957 558 q 813 664 882 664 z "},"ç":{"ha":722,"x_min":44,"x_max":696,"o":"m 693 542 l 531 508 q 485 619 521 581 q 393 658 450 658 q 275 585 317 658 q 233 378 233 513 q 274 178 233 247 q 392 108 315 108 q 535 264 507 108 l 696 229 q 589 44 669 110 q 386 -21 508 -21 q 244 6 307 -21 q 136 84 181 33 q 68 207 92 135 q 44 371 44 279 q 70 542 44 464 q 142 675 96 619 q 251 762 188 731 q 393 793 315 793 q 586 728 507 793 q 693 542 665 663 m 233 -271 l 283 -49 l 443 -49 l 322 -271 l 233 -271 z "},"è":{"ha":749,"x_min":44,"x_max":706,"o":"m 704 347 l 225 347 l 225 328 q 270 171 225 231 q 390 111 315 111 q 540 240 503 111 l 701 207 q 581 38 661 96 q 385 -19 501 -19 q 242 8 306 -19 q 135 87 179 36 q 68 210 92 138 q 44 375 44 283 q 69 547 44 469 q 138 678 93 624 q 246 763 183 733 q 385 793 308 793 q 537 758 468 793 q 642 660 606 722 q 688 538 671 611 q 706 394 706 464 q 706 373 706 385 q 704 347 706 361 m 383 661 q 277 610 317 661 q 231 464 238 558 l 525 464 q 487 608 525 556 q 383 661 449 661 m 235 1019 l 419 1019 l 485 844 l 300 844 l 235 1019 z "},"é":{"ha":749,"x_min":44,"x_max":706,"o":"m 704 347 l 225 347 l 225 328 q 270 171 225 231 q 390 111 315 111 q 540 240 503 111 l 701 207 q 581 38 661 96 q 385 -19 501 -19 q 242 8 306 -19 q 135 87 179 36 q 68 210 92 138 q 44 375 44 283 q 69 547 44 469 q 138 678 93 624 q 246 763 183 733 q 385 793 308 793 q 537 758 468 793 q 642 660 606 722 q 688 538 671 611 q 706 394 706 464 q 706 373 706 385 q 704 347 706 361 m 383 661 q 277 610 317 661 q 231 464 238 558 l 525 464 q 487 608 525 556 q 383 661 449 661 m 293 840 l 357 1017 l 542 1017 l 478 840 l 293 840 z "},"ê":{"ha":749,"x_min":44,"x_max":706,"o":"m 704 347 l 225 347 l 225 328 q 270 171 225 231 q 390 111 315 111 q 540 240 503 111 l 701 207 q 581 38 661 96 q 385 -19 501 -19 q 242 8 306 -19 q 135 87 179 36 q 68 210 92 138 q 44 375 44 283 q 69 547 44 469 q 138 678 93 624 q 246 763 183 733 q 385 793 308 793 q 537 758 468 793 q 642 660 606 722 q 688 538 671 611 q 706 394 706 464 q 706 373 706 385 q 704 347 706 361 m 383 661 q 277 610 317 661 q 231 464 238 558 l 525 464 q 487 608 525 556 q 383 661 449 661 m 150 833 l 217 1007 l 556 1007 l 622 833 l 453 833 l 386 1001 l 321 833 l 150 833 z "},"ë":{"ha":749,"x_min":44,"x_max":706,"o":"m 704 347 l 225 347 l 225 328 q 270 171 225 231 q 390 111 315 111 q 540 240 503 111 l 701 207 q 581 38 661 96 q 385 -19 501 -19 q 242 8 306 -19 q 135 87 179 36 q 68 210 92 138 q 44 375 44 283 q 69 547 44 469 q 138 678 93 624 q 246 763 183 733 q 385 793 308 793 q 537 758 468 793 q 642 660 606 722 q 688 538 671 611 q 706 394 706 464 q 706 373 706 385 q 704 347 706 361 m 383 661 q 277 610 317 661 q 231 464 238 558 l 525 464 q 487 608 525 556 q 383 661 449 661 m 153 835 l 153 1011 l 332 1011 l 332 835 l 153 835 m 435 835 l 435 1011 l 615 1011 l 615 835 l 435 835 z "},"ì":{"ha":326,"x_min":7,"x_max":257,"o":"m 74 0 l 74 771 l 253 771 l 253 0 l 74 0 m 7 1019 l 192 1019 l 257 844 l 72 844 l 7 1019 z "},"í":{"ha":326,"x_min":74,"x_max":324,"o":"m 74 0 l 74 771 l 253 771 l 253 0 l 74 0 m 75 840 l 139 1017 l 324 1017 l 260 840 l 75 840 z "},"î":{"ha":326,"x_min":-65,"x_max":407,"o":"m 74 0 l 74 771 l 253 771 l 253 0 l 74 0 m -65 833 l 1 1007 l 340 1007 l 407 833 l 238 833 l 171 1001 l 106 833 l -65 833 z "},"ï":{"ha":326,"x_min":-62,"x_max":400,"o":"m 74 0 l 74 771 l 253 771 l 253 0 l 74 0 m -62 835 l -62 1011 l 117 1011 l 117 835 l -62 835 m 219 835 l 219 1011 l 400 1011 l 400 835 l 219 835 z "},"ñ":{"ha":769,"x_min":74,"x_max":697,"o":"m 74 0 l 74 771 l 253 771 l 253 672 q 369 764 315 736 q 481 792 422 792 q 578 771 533 792 q 651 711 624 750 q 686 633 675 679 q 697 517 697 588 l 697 0 l 515 0 l 515 493 q 515 536 515 525 q 514 554 515 547 q 481 617 508 593 q 414 640 454 640 q 333 615 375 640 q 253 540 290 589 l 253 0 l 74 0 m 174 839 q 219 948 181 910 q 324 986 258 986 q 360 981 339 986 q 421 965 382 976 q 500 950 475 950 q 551 983 540 950 l 633 983 q 589 871 626 910 q 486 832 551 832 q 474 833 479 832 q 438 837 457 835 q 407 842 418 839 l 350 858 q 322 865 335 863 q 303 868 310 868 q 274 861 283 868 q 261 839 265 854 l 174 839 z "},"ò":{"ha":785,"x_min":47,"x_max":739,"o":"m 47 386 q 71 555 47 479 q 140 684 94 631 q 249 766 185 738 q 392 794 313 794 q 647 687 556 794 q 739 386 739 579 q 647 85 739 193 q 392 -22 556 -22 q 249 6 313 -22 q 140 88 185 35 q 71 216 94 140 q 47 386 47 292 m 392 664 q 235 386 235 664 q 273 176 235 243 q 392 108 311 108 q 549 386 549 108 q 392 664 549 664 m 244 1019 l 429 1019 l 494 844 l 310 844 l 244 1019 z "},"ó":{"ha":785,"x_min":47,"x_max":739,"o":"m 47 386 q 71 555 47 479 q 140 684 94 631 q 249 766 185 738 q 392 794 313 794 q 647 687 556 794 q 739 386 739 579 q 647 85 739 193 q 392 -22 556 -22 q 249 6 313 -22 q 140 88 185 35 q 71 216 94 140 q 47 386 47 292 m 392 664 q 235 386 235 664 q 273 176 235 243 q 392 108 311 108 q 549 386 549 108 q 392 664 549 664 m 310 840 l 374 1017 l 558 1017 l 494 840 l 310 840 z "},"ô":{"ha":785,"x_min":47,"x_max":739,"o":"m 47 386 q 71 555 47 479 q 140 684 94 631 q 249 766 185 738 q 392 794 313 794 q 647 687 556 794 q 739 386 739 579 q 647 85 739 193 q 392 -22 556 -22 q 249 6 313 -22 q 140 88 185 35 q 71 216 94 140 q 47 386 47 292 m 392 664 q 235 386 235 664 q 273 176 235 243 q 392 108 311 108 q 549 386 549 108 q 392 664 549 664 m 161 833 l 228 1007 l 567 1007 l 633 833 l 464 833 l 397 1001 l 332 833 l 161 833 z "},"õ":{"ha":785,"x_min":47,"x_max":739,"o":"m 47 386 q 71 555 47 479 q 140 684 94 631 q 249 766 185 738 q 392 794 313 794 q 647 687 556 794 q 739 386 739 579 q 647 85 739 193 q 392 -22 556 -22 q 249 6 313 -22 q 140 88 185 35 q 71 216 94 140 q 47 386 47 292 m 392 664 q 235 386 235 664 q 273 176 235 243 q 392 108 311 108 q 549 386 549 108 q 392 664 549 664 m 189 839 q 235 948 196 910 q 339 986 274 986 q 376 981 354 986 q 436 965 397 976 q 515 950 490 950 q 567 983 556 950 l 649 983 q 604 871 642 910 q 501 832 567 832 q 489 833 494 832 q 453 837 472 835 q 422 842 433 839 l 365 858 q 338 865 350 863 q 318 868 325 868 q 290 861 299 868 q 276 839 281 854 l 189 839 z "},"ö":{"ha":785,"x_min":47,"x_max":739,"o":"m 47 386 q 71 555 47 479 q 140 684 94 631 q 249 766 185 738 q 392 794 313 794 q 647 687 556 794 q 739 386 739 579 q 647 85 739 193 q 392 -22 556 -22 q 249 6 313 -22 q 140 88 185 35 q 71 216 94 140 q 47 386 47 292 m 392 664 q 235 386 235 664 q 273 176 235 243 q 392 108 311 108 q 549 386 549 108 q 392 664 549 664 m 169 828 l 169 1004 l 349 1004 l 349 828 l 169 828 m 451 828 l 451 1004 l 632 1004 l 632 828 l 451 828 z "},"÷":{"ha":825,"x_min":60,"x_max":703,"o":"m 325 196 q 382 219 351 219 q 438 197 415 219 q 460 140 460 175 q 436 85 460 107 q 382 61 415 61 q 325 85 349 61 q 303 140 303 110 q 325 196 303 174 m 703 375 l 703 281 l 60 281 l 60 375 l 703 375 m 325 569 q 382 593 349 590 q 436 569 415 593 q 460 514 460 546 q 436 458 460 481 q 382 435 415 435 q 325 458 349 435 q 303 514 303 481 q 325 569 303 547 z "},"ø":{"ha":774,"x_min":44,"x_max":728,"o":"m 44 26 l 118 111 q 97 143 104 131 q 86 168 90 156 q 60 259 68 208 q 53 365 53 310 q 77 536 53 458 q 146 669 101 614 q 253 756 190 725 q 392 786 315 786 q 509 766 456 786 q 615 701 563 746 l 679 774 l 728 731 l 656 647 q 674 617 667 629 q 683 594 681 606 q 708 506 699 554 q 717 403 717 457 q 691 233 717 310 q 619 100 665 156 q 509 14 574 44 q 368 -17 444 -17 q 257 2 306 -17 q 163 63 208 21 l 92 -19 l 44 26 m 518 494 l 271 183 q 381 118 313 118 q 491 185 451 118 q 531 369 531 251 q 528 425 531 396 q 518 494 525 454 m 247 261 l 499 567 q 454 629 485 607 q 382 651 424 651 q 269 585 308 651 q 231 394 231 518 q 235 328 231 358 q 247 261 239 299 z "},"ù":{"ha":764,"x_min":74,"x_max":692,"o":"m 511 104 q 282 -19 417 -19 q 188 0 231 -19 q 118 56 146 19 q 97 92 106 74 q 83 135 89 111 q 76 191 78 160 q 74 264 74 222 l 74 771 l 254 771 l 254 282 q 255 240 254 258 q 257 211 256 222 q 285 153 260 175 q 349 132 310 132 q 513 229 432 132 l 513 771 l 692 771 l 692 0 l 511 0 l 511 104 m 232 1019 l 417 1019 l 482 844 l 297 844 l 232 1019 z "},"ú":{"ha":764,"x_min":74,"x_max":692,"o":"m 511 104 q 282 -19 417 -19 q 188 0 231 -19 q 118 56 146 19 q 97 92 106 74 q 83 135 89 111 q 76 191 78 160 q 74 264 74 222 l 74 771 l 254 771 l 254 282 q 255 240 254 258 q 257 211 256 222 q 285 153 260 175 q 349 132 310 132 q 513 229 432 132 l 513 771 l 692 771 l 692 0 l 511 0 l 511 104 m 311 840 l 375 1017 l 560 1017 l 496 840 l 311 840 z "},"û":{"ha":764,"x_min":74,"x_max":692,"o":"m 511 104 q 282 -19 417 -19 q 188 0 231 -19 q 118 56 146 19 q 97 92 106 74 q 83 135 89 111 q 76 191 78 160 q 74 264 74 222 l 74 771 l 254 771 l 254 282 q 255 240 254 258 q 257 211 256 222 q 285 153 260 175 q 349 132 310 132 q 513 229 432 132 l 513 771 l 692 771 l 692 0 l 511 0 l 511 104 m 157 833 l 224 1007 l 563 1007 l 629 833 l 460 833 l 393 1001 l 328 833 l 157 833 z "},"ü":{"ha":764,"x_min":74,"x_max":692,"o":"m 511 104 q 282 -19 417 -19 q 188 0 231 -19 q 118 56 146 19 q 97 92 106 74 q 83 135 89 111 q 76 191 78 160 q 74 264 74 222 l 74 771 l 254 771 l 254 282 q 255 240 254 258 q 257 211 256 222 q 285 153 260 175 q 349 132 310 132 q 513 229 432 132 l 513 771 l 692 771 l 692 0 l 511 0 l 511 104 m 168 829 l 168 1006 l 347 1006 l 347 829 l 168 829 m 450 829 l 450 1006 l 631 1006 l 631 829 l 450 829 z "},"ÿ":{"ha":663,"x_min":-25,"x_max":688,"o":"m -25 771 l 168 771 l 297 368 q 308 333 306 342 q 314 314 311 324 q 328 253 324 282 q 335 171 332 224 q 344 258 339 228 q 357 314 349 288 l 374 367 l 496 771 l 688 771 l 393 -69 q 375 -112 386 -90 q 351 -155 364 -135 q 326 -192 339 -175 q 300 -218 313 -208 q 228 -256 272 -243 q 132 -269 183 -269 q 72 -267 104 -269 q -3 -260 39 -264 l 0 -125 q 49 -134 28 -132 q 92 -136 69 -136 q 145 -128 122 -136 q 187 -103 168 -121 q 221 -55 206 -85 q 251 19 236 -25 l -25 771 m 110 835 l 110 1011 l 289 1011 l 289 835 l 110 835 m 392 835 l 392 1011 l 572 1011 l 572 835 l 392 835 z "},"ı":{"ha":326,"x_min":74,"x_max":253,"o":"m 74 0 l 74 771 l 253 771 l 253 0 l 74 0 z "},"Œ":{"ha":1282,"x_min":44,"x_max":1258,"o":"m 1258 0 l 735 0 l 674 0 q 664 -1 668 0 q 652 -3 660 -1 q 633 -6 644 -4 q 603 -11 622 -7 q 548 -19 575 -17 q 492 -21 521 -21 q 159 107 274 -21 q 44 481 44 235 q 75 700 44 601 q 160 869 106 799 q 293 979 215 940 q 465 1018 371 1018 q 578 1008 521 1018 q 628 1001 614 1001 q 663 1000 642 1000 l 696 1000 q 735 1001 719 1000 q 763 1001 751 1001 l 1240 1001 l 1240 838 l 853 838 l 853 588 l 1156 588 l 1156 428 l 854 428 l 854 154 l 1258 154 l 1258 0 m 463 124 q 540 140 504 124 q 603 184 576 156 q 646 250 631 213 q 661 331 661 288 l 661 690 q 645 758 661 725 q 603 815 629 790 q 542 856 576 840 q 469 871 507 871 q 305 770 363 871 q 247 481 247 669 q 463 124 247 124 z "},"œ":{"ha":1221,"x_min":44,"x_max":1182,"o":"m 628 674 q 864 794 707 794 q 995 767 936 794 q 1094 690 1054 740 q 1157 568 1135 640 q 1179 407 1179 496 q 1178 385 1179 397 q 1178 357 1178 372 l 707 357 q 706 339 707 347 q 706 325 706 331 q 718 237 706 276 q 753 168 731 197 q 808 123 776 139 q 876 107 839 107 q 971 140 933 107 q 1024 238 1008 174 l 1182 206 q 867 -21 1088 -21 q 752 -3 806 -21 q 660 51 699 15 q 642 67 649 58 q 624 90 635 75 q 606 69 613 76 q 592 56 600 63 q 496 -1 551 18 q 376 -21 440 -21 q 238 6 299 -21 q 133 85 176 33 q 67 209 90 136 q 44 374 44 282 q 69 544 44 467 q 138 678 93 622 q 245 764 183 733 q 382 794 307 794 q 524 763 461 794 q 628 674 588 732 m 386 656 q 268 586 308 656 q 228 381 228 517 l 228 368 q 381 107 228 107 q 536 383 536 107 q 386 656 536 656 m 865 665 q 758 613 797 665 q 711 467 718 561 l 1008 467 q 969 614 1006 563 q 865 665 932 665 z "},"Š":{"ha":763,"x_min":4,"x_max":722,"o":"m 4 254 l 201 297 q 375 138 226 138 q 484 174 442 138 q 526 271 526 211 q 509 330 526 303 q 460 374 492 357 q 426 388 449 379 q 364 410 403 396 q 325 422 339 418 q 308 428 311 426 q 277 441 294 435 q 240 456 260 447 q 195 476 215 467 q 160 496 175 485 q 79 585 108 528 q 50 710 50 643 q 76 835 50 778 q 147 935 101 893 q 254 999 192 976 q 392 1022 317 1022 q 668 889 581 1022 q 694 835 686 861 q 710 758 703 808 l 532 715 q 483 824 521 786 q 383 863 444 863 q 283 826 322 863 q 243 736 243 790 q 278 658 243 690 q 315 635 293 644 q 358 618 329 629 q 413 599 386 607 l 468 581 q 545 550 506 568 q 613 514 585 532 q 693 422 664 479 q 722 297 722 364 q 695 169 722 228 q 620 69 668 111 q 506 2 572 26 q 364 -22 440 -22 q 57 122 160 -22 q 40 149 47 136 q 26 177 32 163 q 15 210 21 192 q 4 254 10 229 m 165 1288 l 336 1288 l 401 1118 l 468 1288 l 638 1288 l 571 1113 l 232 1113 l 165 1288 z "},"š":{"ha":644,"x_min":19,"x_max":606,"o":"m 19 196 l 181 238 q 319 119 214 119 q 399 144 368 119 q 429 207 429 168 q 346 293 429 268 l 283 313 q 206 340 240 326 q 147 365 171 353 q 76 435 101 389 q 50 540 50 481 q 71 641 50 594 q 129 722 92 688 q 217 775 167 756 q 328 794 268 794 q 503 742 432 794 q 606 592 574 690 l 446 549 q 326 660 414 660 q 253 633 282 660 q 224 571 224 607 q 258 506 224 532 q 297 488 271 497 q 375 461 324 479 l 419 446 q 555 362 510 414 q 600 229 600 310 q 579 128 600 174 q 521 49 558 82 q 431 -1 483 17 q 314 -19 378 -19 q 19 196 82 -19 m 92 1008 l 263 1008 l 328 839 l 394 1008 l 564 1008 l 497 833 l 158 833 l 92 1008 z "},"Ÿ":{"ha":757,"x_min":-35,"x_max":792,"o":"m -35 1001 l 183 1001 l 347 678 q 371 619 364 644 q 385 553 378 594 q 401 620 392 594 q 426 678 411 646 l 589 1001 l 792 1001 l 474 413 l 474 0 l 281 0 l 281 413 l -35 1001 m 174 1114 l 174 1290 l 353 1290 l 353 1114 l 174 1114 m 456 1114 l 456 1290 l 636 1290 l 636 1114 l 456 1114 z "},"Ž":{"ha":721,"x_min":29,"x_max":692,"o":"m 29 0 l 29 138 l 432 775 q 448 799 443 793 q 458 813 453 806 q 476 833 467 824 q 506 858 486 843 q 442 849 469 851 q 388 847 414 847 l 40 847 l 40 1001 l 692 1001 l 692 854 l 301 229 q 280 196 289 208 q 263 174 271 183 q 246 157 256 165 q 222 138 236 149 q 292 147 263 144 q 353 149 321 149 l 681 149 l 681 0 l 29 0 m 151 1288 l 322 1288 l 388 1118 l 454 1288 l 624 1288 l 557 1113 l 218 1113 l 151 1288 z "},"ž":{"ha":664,"x_min":29,"x_max":636,"o":"m 29 0 l 29 117 l 371 588 q 387 609 382 603 q 394 619 392 615 q 409 633 401 626 q 432 649 417 639 q 384 642 403 643 q 331 640 365 640 l 53 640 l 53 771 l 636 771 l 636 651 l 311 204 q 295 183 303 193 q 279 165 288 172 q 261 147 269 154 q 236 125 253 139 q 300 133 272 131 q 354 135 328 135 l 636 135 l 636 0 l 29 0 m 122 1008 l 293 1008 l 358 839 l 425 1008 l 594 1008 l 528 833 l 189 833 l 122 1008 z "},"ƒ":{"ha":540,"x_min":-78,"x_max":557,"o":"m -78 -247 l -62 -106 l -25 -107 l 6 -108 l 17 -108 q 83 -85 63 -108 q 110 -3 103 -62 l 179 628 l 57 628 l 71 763 l 193 764 l 201 839 q 224 937 208 893 q 263 1006 239 981 q 352 1056 294 1038 q 486 1074 410 1074 q 519 1074 506 1074 q 557 1071 533 1074 l 543 926 q 512 928 525 928 q 483 929 499 929 q 432 925 451 929 q 401 910 413 921 q 383 879 389 899 q 375 828 378 860 l 369 763 l 522 763 l 507 628 l 356 628 l 282 -14 q 260 -116 275 -78 q 218 -183 246 -154 q 133 -236 182 -221 q 0 -251 83 -251 q -37 -251 -19 -251 q -78 -247 -54 -250 z "},"ˆ":{"ha":481,"x_min":4,"x_max":476,"o":"m 4 833 l 71 1007 l 410 1007 l 476 833 l 307 833 l 240 1001 l 175 833 l 4 833 z "},"ˇ":{"ha":481,"x_min":4,"x_max":476,"o":"m 4 1008 l 175 1008 l 240 839 l 307 1008 l 476 1008 l 410 833 l 71 833 l 4 1008 z "},"¯":{"ha":471,"x_min":4,"x_max":465,"o":"m 4 854 l 4 981 l 465 981 l 465 854 l 4 854 z "},"˘":{"ha":438,"x_min":8,"x_max":429,"o":"m 8 988 l 135 988 q 176 948 158 958 q 218 938 193 938 q 265 947 247 938 q 304 988 282 957 l 429 988 q 407 940 418 960 q 385 904 396 919 q 315 850 360 869 q 219 831 269 831 q 131 849 175 831 q 92 869 108 858 q 63 897 76 881 q 35 934 49 913 q 8 988 22 956 z "},"˙":{"ha":190,"x_min":4,"x_max":186,"o":"m 4 867 l 4 1081 l 186 1081 l 186 867 l 4 867 z "},"˚":{"ha":367,"x_min":40,"x_max":326,"o":"m 40 950 q 51 1004 40 979 q 82 1048 63 1029 q 127 1078 101 1067 q 182 1089 153 1089 q 238 1078 211 1089 q 284 1048 264 1067 q 315 1004 304 1029 q 326 950 326 979 q 315 895 326 921 q 285 851 304 869 q 239 822 265 832 q 183 811 213 811 q 128 822 154 811 q 83 851 103 832 q 51 895 63 869 q 40 950 40 921 m 183 1011 q 138 993 157 1011 q 119 950 119 975 q 138 908 119 926 q 182 890 156 890 q 228 908 210 890 q 246 950 246 926 q 228 993 246 975 q 183 1011 210 1011 z "},"˛":{"ha":276,"x_min":44,"x_max":231,"o":"m 44 0 l 44 197 l 231 197 l 231 0 l 44 0 z "},"˜":{"ha":469,"x_min":4,"x_max":464,"o":"m 4 839 q 50 948 11 910 q 154 986 89 986 q 191 981 169 986 q 251 965 213 976 q 331 950 306 950 q 382 983 371 950 l 464 983 q 419 871 457 910 q 317 832 382 832 q 304 833 310 832 q 268 837 288 835 q 238 842 249 839 l 181 858 q 153 865 165 863 q 133 868 140 868 q 105 861 114 868 q 92 839 96 854 l 4 839 z "},"˝":{"ha":311,"x_min":56,"x_max":304,"o":"m 56 840 l 119 1017 l 304 1017 l 240 840 l 56 840 z "},"Ω":{"ha":1153,"x_min":69,"x_max":997,"o":"m 653 125 l 824 125 q 917 149 890 125 q 946 244 942 174 l 978 244 l 978 0 l 600 0 l 600 250 q 771 356 707 271 q 833 567 833 440 q 753 800 833 714 q 533 888 669 888 q 315 800 396 888 q 233 567 233 714 q 294 356 233 439 q 467 250 354 274 l 467 0 l 89 0 l 89 244 l 121 244 q 149 150 125 174 q 243 125 174 125 l 414 125 l 414 207 q 160 331 250 236 q 69 567 69 425 q 197 836 69 735 q 533 938 326 938 q 869 836 740 938 q 997 567 994 735 q 907 331 997 428 q 653 207 819 239 l 653 125 z "},"π":{"ha":825,"x_min":24,"x_max":731,"o":"m 575 517 q 561 518 567 517 q 560 504 561 513 q 560 485 560 496 q 556 359 557 410 q 556 276 556 308 l 556 221 q 567 76 556 104 q 610 46 579 46 q 667 86 646 44 q 690 210 686 125 l 725 210 l 725 203 q 689 39 725 92 q 578 -14 653 -14 q 467 40 499 -15 q 435 269 435 94 q 435 307 435 281 q 436 378 435 333 q 440 522 439 467 q 411 522 428 522 q 371 524 394 522 q 322 524 349 524 q 264 526 296 525 q 256 258 264 365 q 232 96 249 151 q 121 -14 201 -12 q 47 26 72 -14 q 24 146 24 67 l 24 172 l 57 172 q 61 140 58 153 q 71 117 64 126 q 108 100 83 100 q 189 186 167 100 q 217 526 213 274 l 186 526 q 103 508 133 526 q 65 453 74 489 l 33 453 q 86 586 38 546 q 254 624 133 624 q 396 619 276 624 q 607 615 513 615 q 675 625 654 615 q 699 654 697 635 l 699 656 l 731 656 l 731 651 q 697 549 731 582 q 594 517 667 518 l 575 517 z "},"–":{"ha":772,"x_min":40,"x_max":733,"o":"m 40 429 l 40 576 l 733 576 l 733 429 l 40 429 z "},"—":{"ha":1383,"x_min":42,"x_max":1342,"o":"m 42 413 l 42 578 l 1342 578 l 1342 413 l 42 413 z "},"‘":{"ha":286,"x_min":44,"x_max":242,"o":"m 44 607 l 44 793 l 156 1018 l 242 1019 l 172 815 l 239 815 l 239 607 l 44 607 z "},"’":{"ha":286,"x_min":44,"x_max":242,"o":"m 44 589 l 115 793 l 49 793 l 49 1001 l 242 1001 l 242 813 l 129 589 l 44 589 z "},"‚":{"ha":289,"x_min":44,"x_max":243,"o":"m 44 -211 l 115 0 l 54 0 l 54 199 l 243 199 l 243 11 l 129 -211 l 44 -211 z "},"“":{"ha":536,"x_min":44,"x_max":492,"o":"m 44 607 l 44 793 l 156 1018 l 242 1019 l 172 815 l 239 815 l 239 607 l 44 607 m 293 607 l 293 793 l 404 1018 l 492 1019 l 421 815 l 486 815 l 486 607 l 293 607 z "},"”":{"ha":536,"x_min":44,"x_max":492,"o":"m 44 589 l 115 793 l 49 793 l 49 1001 l 242 1001 l 242 813 l 129 589 l 44 589 m 293 589 l 365 793 l 296 793 l 296 1001 l 492 1001 l 492 813 l 378 589 l 293 589 z "},"„":{"ha":536,"x_min":44,"x_max":492,"o":"m 44 -211 l 115 0 l 54 0 l 54 199 l 243 199 l 243 11 l 129 -211 l 44 -211 m 294 -211 l 365 0 l 301 0 l 301 199 l 492 199 l 492 11 l 378 -211 l 294 -211 z "},"†":{"ha":867,"x_min":25,"x_max":840,"o":"m 25 511 l 25 690 l 340 690 l 340 1001 l 524 1001 l 524 690 l 840 690 l 840 511 l 529 511 l 529 -253 l 338 -253 l 338 511 l 25 511 z "},"•":{"ha":278,"x_min":44,"x_max":233,"o":"m 44 290 l 44 486 l 233 486 l 233 290 l 44 290 z "},"…":{"ha":1383,"x_min":133,"x_max":1274,"o":"m 133 100 q 168 182 133 147 q 250 217 203 217 q 332 182 297 217 q 367 100 367 147 q 332 18 367 53 q 250 -17 297 -17 q 168 18 203 -17 q 133 100 133 53 m 596 100 q 629 182 596 149 q 712 217 664 217 q 794 182 760 217 q 829 100 829 149 q 794 18 829 51 q 712 -17 760 -17 q 629 18 664 -17 q 596 100 596 51 m 1040 100 q 1049 145 1040 124 q 1074 183 1058 167 q 1111 208 1090 199 q 1157 217 1132 217 q 1240 183 1206 217 q 1274 100 1274 149 q 1240 17 1274 51 q 1157 -17 1206 -17 q 1111 -8 1132 -17 q 1074 17 1090 1 q 1049 55 1058 33 q 1040 100 1040 76 z "},"‰":{"ha":1354,"x_min":40,"x_max":1313,"o":"m 40 757 q 56 860 40 813 q 97 943 71 908 q 160 997 124 978 q 239 1017 196 1017 q 318 997 282 1017 q 381 943 354 978 q 422 860 407 908 q 438 757 438 813 q 422 653 438 700 q 381 571 407 606 q 318 517 354 536 q 239 497 282 497 q 160 517 196 497 q 97 571 124 536 q 56 653 71 606 q 40 757 40 700 m 138 0 l 654 1001 l 764 1001 l 249 0 l 138 0 m 469 246 q 485 349 469 301 q 526 432 500 397 q 589 487 553 467 q 667 507 625 507 q 746 487 710 507 q 808 432 782 467 q 850 349 835 397 q 865 246 865 301 q 850 142 865 189 q 808 59 835 94 q 746 4 782 24 q 668 -15 710 -15 q 590 5 626 -15 q 526 60 553 25 q 485 142 500 94 q 469 246 469 190 m 918 246 q 933 349 918 301 q 975 432 949 397 q 1038 487 1001 467 q 1115 507 1074 507 q 1193 487 1157 507 q 1256 432 1229 467 q 1297 349 1282 397 q 1313 246 1313 301 q 1297 142 1313 189 q 1256 59 1282 94 q 1193 4 1229 24 q 1115 -15 1157 -15 q 1038 5 1074 -15 q 975 60 1001 25 q 933 142 949 94 q 918 246 918 190 m 667 401 q 612 362 631 401 q 593 247 593 322 q 613 132 593 172 q 668 92 632 92 q 723 131 704 92 q 742 246 742 171 q 723 361 742 321 q 667 401 704 401 m 239 910 q 183 869 203 910 q 164 758 164 829 q 183 644 164 686 q 239 603 203 603 q 294 644 274 603 q 315 757 315 685 q 294 869 315 828 q 239 910 274 910 m 1115 401 q 1060 362 1079 401 q 1040 246 1040 322 q 1060 131 1040 171 q 1115 92 1079 92 q 1171 131 1151 92 q 1190 246 1190 171 q 1171 361 1190 321 q 1115 401 1151 401 z "},"‹":{"ha":403,"x_min":40,"x_max":360,"o":"m 40 383 l 290 751 l 360 715 l 208 385 l 360 53 l 292 18 l 40 383 z "},"›":{"ha":400,"x_min":40,"x_max":357,"o":"m 40 53 l 192 383 l 42 717 l 113 751 l 357 385 l 110 19 l 40 53 z "},"™":{"ha":1074,"x_min":53,"x_max":940,"o":"m 53 919 l 53 1000 l 357 1000 l 357 918 l 250 919 l 250 500 l 158 500 l 158 919 l 53 919 m 340 500 l 429 1007 l 500 1007 l 615 725 q 634 670 629 693 q 640 621 639 647 q 642 635 642 628 q 643 650 642 643 q 651 685 646 669 q 665 725 656 701 l 781 1007 l 851 1007 l 940 500 l 851 500 l 806 779 l 804 794 l 803 811 q 803 868 801 839 q 797 842 800 856 q 788 811 793 828 l 781 789 l 778 781 l 663 494 l 619 494 l 503 781 l 500 790 l 493 811 q 484 842 488 828 q 478 868 481 856 q 481 840 481 854 q 479 811 481 826 l 478 793 l 475 779 l 429 500 l 340 500 z "},"∂":{"ha":742,"x_min":86,"x_max":606,"o":"m 435 496 q 497 399 474 467 q 510 481 506 429 q 514 604 514 531 q 492 779 514 722 q 426 836 471 836 q 357 788 401 836 q 279 739 314 740 q 242 751 256 739 q 232 765 235 757 q 228 783 229 772 q 268 853 228 825 q 369 882 310 882 q 542 782 476 883 q 606 510 606 679 q 517 132 606 283 q 297 -18 426 -18 q 144 53 203 -18 q 101 136 115 89 q 86 243 88 183 q 160 443 86 357 q 333 528 232 526 q 435 496 394 528 m 443 440 q 356 485 414 485 q 235 401 282 485 q 201 304 211 360 q 189 178 190 249 q 219 56 189 99 q 306 13 249 13 q 426 97 379 13 q 474 311 471 182 q 466 385 474 354 q 443 440 458 417 z "},"∆":{"ha":919,"x_min":29,"x_max":826,"o":"m 443 933 l 826 0 l 29 0 l 413 933 l 443 933 m 388 700 l 128 63 l 646 63 l 388 700 z "},"∏":{"ha":1236,"x_min":42,"x_max":1107,"o":"m 42 -244 l 164 -244 l 164 978 l 42 978 l 42 1033 l 1107 1033 l 1107 978 l 985 978 l 985 -244 l 1107 -244 l 1107 -300 l 740 -300 l 740 -244 l 857 -244 l 857 978 l 292 978 l 292 -244 l 408 -244 l 408 -300 l 42 -300 l 42 -244 z "},"∑":{"ha":1071,"x_min":50,"x_max":918,"o":"m 822 1013 q 858 893 846 994 l 879 714 l 818 714 q 700 914 774 860 q 465 968 626 968 l 282 968 l 719 369 l 242 -178 l 501 -178 q 740 -135 671 -178 q 856 28 811 -90 l 918 28 l 876 -153 l 874 -162 q 818 -265 854 -231 q 719 -300 782 -300 l 50 -300 l 590 319 l 69 1033 l 708 1033 q 822 1013 799 1033 z "},"·":{"ha":278,"x_min":44,"x_max":233,"o":"m 44 290 l 44 486 l 233 486 l 233 290 l 44 290 z "},"√":{"ha":825,"x_min":-19,"x_max":825,"o":"m 825 1126 l 825 1061 l 746 1061 l 343 -28 l 299 -28 l 82 571 l -3 540 l -19 594 l 172 661 l 346 181 l 696 1126 l 825 1126 z "},"∞":{"ha":1071,"x_min":74,"x_max":915,"o":"m 597 200 q 508 331 550 240 q 408 200 463 244 q 290 158 356 158 q 138 232 201 158 q 74 414 74 307 q 131 600 74 529 q 276 672 186 669 q 392 631 342 672 q 482 500 440 590 q 579 629 525 586 q 700 672 632 672 q 853 599 788 672 q 915 417 915 525 q 860 229 915 301 q 714 158 803 158 q 597 200 647 158 m 357 285 q 458 454 399 326 q 376 550 422 518 q 271 583 331 583 q 154 535 200 583 q 108 410 111 489 q 150 286 108 333 q 256 239 190 239 q 357 285 311 239 m 629 542 q 532 376 583 492 q 613 279 565 311 q 719 247 658 247 q 836 296 790 246 q 882 421 879 342 q 840 544 882 499 q 729 592 799 592 q 629 542 676 592 z "},"∫":{"ha":411,"x_min":-125,"x_max":506,"o":"m 278 1008 q 393 1051 331 1051 q 474 1025 443 1051 q 506 958 503 1001 q 488 910 506 931 q 438 892 469 892 q 376 936 397 890 q 336 981 356 981 q 257 550 267 981 q 253 414 254 461 q 244 237 250 315 q 231 96 239 158 q 212 -11 222 35 q 188 -89 201 -57 q 101 -208 154 -165 q -12 -251 47 -251 q -93 -225 -61 -251 q -125 -158 -122 -201 q -107 -110 -125 -128 q -57 -93 -90 -93 q 4 -136 -17 -93 q 46 -181 25 -179 q 125 269 110 -181 q 126 336 126 307 q 128 386 126 365 q 149 701 135 581 q 193 889 165 824 q 278 1008 226 965 z "},"≈":{"ha":825,"x_min":21,"x_max":742,"o":"m 142 213 q 21 139 96 193 l 21 246 q 140 307 89 289 q 244 326 194 326 q 316 319 276 328 q 404 293 356 310 q 488 269 453 276 q 542 260 522 261 q 626 281 581 260 q 742 353 674 301 l 742 244 q 633 186 683 204 q 585 173 610 176 q 535 168 560 169 q 390 201 490 168 q 229 233 290 233 q 142 213 189 233 m 144 379 q 21 304 101 361 l 21 411 q 81 446 53 431 q 138 471 110 461 q 190 485 165 481 q 243 490 215 490 q 315 483 275 490 q 404 458 354 475 q 488 434 453 443 q 542 425 522 425 q 626 444 579 425 q 742 517 671 465 l 742 410 q 632 351 685 371 q 535 333 586 333 q 390 367 488 333 q 236 399 290 399 q 144 379 188 399 z "},"≠":{"ha":825,"x_min":63,"x_max":700,"o":"m 678 569 l 574 467 l 700 467 l 700 378 l 493 378 l 392 278 l 700 278 l 700 189 l 310 189 l 146 25 l 86 86 l 189 189 l 63 189 l 63 278 l 271 278 l 372 378 l 63 378 l 63 467 l 453 467 l 617 631 l 678 569 z "},"≤":{"ha":825,"x_min":60,"x_max":703,"o":"m 703 119 l 703 25 l 60 25 l 60 119 l 703 119 m 703 539 l 225 389 l 703 240 l 703 143 l 61 344 l 61 435 l 703 636 l 703 539 z "},"≥":{"ha":825,"x_min":60,"x_max":703,"o":"m 703 119 l 703 25 l 60 25 l 60 119 l 703 119 m 703 435 l 703 344 l 60 143 l 60 240 l 538 389 l 60 539 l 60 636 l 703 435 z "},"◊":{"ha":742,"x_min":4,"x_max":682,"o":"m 4 401 l 343 1121 l 682 401 l 343 -324 l 4 401 m 604 401 l 343 956 l 82 401 l 343 -158 l 604 401 z "},"":{"ha":1186,"x_min":75,"x_max":1021,"o":"m 574 824 q 567 825 569 824 q 565 835 567 831 l 565 850 q 631 1006 565 935 q 790 1094 693 1076 l 790 1078 q 790 1068 790 1074 q 792 1053 790 1063 q 721 893 792 964 q 583 824 651 824 l 578 824 l 574 824 m 903 367 q 1021 274 943 307 q 948 132 982 190 q 882 40 914 74 q 743 -24 818 -24 q 654 -1 708 -24 q 571 21 600 21 q 482 -1 539 21 q 396 -24 425 -24 q 353 -17 375 -24 q 308 6 331 -10 q 265 43 286 21 q 221 96 244 65 q 160 193 186 143 q 114 296 133 243 q 76 500 76 401 q 161 742 75 646 q 381 836 247 836 q 486 813 429 836 q 569 789 546 789 q 651 813 594 789 q 707 830 682 824 q 756 836 732 836 q 890 810 832 836 q 999 725 950 782 q 896 626 931 682 q 863 503 863 572 q 903 367 861 428 z "}," ":{"ha":403,"x_min":0,"x_max":0,"o":""},"∕":{"ha":368,"x_min":-175,"x_max":543,"o":"m -175 0 l 428 1001 l 543 1001 l -56 0 l -175 0 z "},"€":{"ha":1021,"x_min":49,"x_max":972,"o":"m 569 333 l 397 333 q 600 122 439 122 q 792 338 761 122 l 972 314 q 843 65 940 150 q 593 -19 746 -19 q 329 73 433 -19 q 192 333 225 165 l 49 333 l 107 469 l 178 469 l 178 489 l 178 531 l 49 531 l 107 667 l 196 667 q 338 927 233 833 q 600 1021 443 1021 q 758 990 683 1021 q 882 900 832 958 q 937 813 917 860 q 971 699 957 765 l 781 667 q 722 822 768 768 q 597 875 675 875 q 399 667 443 875 l 711 667 l 653 531 l 385 531 l 385 493 l 385 469 l 628 469 l 569 333 z "},"":{"ha":311,"x_min":56,"x_max":304,"o":"m 56 1119 l 119 1296 l 304 1296 l 240 1119 l 56 1119 z "},"":{"ha":289,"x_min":4,"x_max":254,"o":"m 4 1299 l 189 1299 l 254 1124 l 69 1124 l 4 1299 z "},"":{"ha":411,"x_min":-25,"x_max":438,"o":"m -25 914 l -25 1090 l 154 1090 l 154 914 l -25 914 m 257 914 l 257 1090 l 438 1090 l 438 914 l 257 914 z "},"":{"ha":481,"x_min":4,"x_max":476,"o":"m 4 1113 l 71 1286 l 410 1286 l 476 1113 l 307 1113 l 240 1281 l 175 1113 l 4 1113 z "},"":{"ha":481,"x_min":4,"x_max":476,"o":"m 4 1288 l 175 1288 l 240 1118 l 307 1288 l 476 1288 l 410 1113 l 71 1113 l 4 1288 z "},"":{"ha":471,"x_min":4,"x_max":465,"o":"m 4 933 l 4 1060 l 465 1060 l 465 933 l 4 933 z "},"":{"ha":438,"x_min":8,"x_max":429,"o":"m 8 1067 l 135 1067 q 176 1027 158 1038 q 218 1017 193 1017 q 265 1026 247 1017 q 304 1067 282 1036 l 429 1067 q 407 1019 418 1039 q 385 983 396 999 q 315 929 360 949 q 219 910 269 910 q 131 928 175 910 q 92 949 108 938 q 63 976 76 960 q 35 1013 49 992 q 8 1067 22 1035 z "},"":{"ha":190,"x_min":4,"x_max":186,"o":"m 4 946 l 4 1160 l 186 1160 l 186 946 l 4 946 z "},"":{"ha":367,"x_min":40,"x_max":326,"o":"m 40 1029 q 51 1083 40 1058 q 82 1127 63 1108 q 127 1157 101 1146 q 182 1168 153 1168 q 238 1157 211 1168 q 284 1127 264 1146 q 315 1083 304 1108 q 326 1029 326 1058 q 315 974 326 1000 q 285 930 304 949 q 239 901 265 911 q 183 890 213 890 q 128 901 154 890 q 83 930 103 911 q 51 974 63 949 q 40 1029 40 1000 m 183 1090 q 138 1072 157 1090 q 119 1029 119 1054 q 138 988 119 1006 q 182 969 156 969 q 228 988 210 969 q 246 1029 246 1006 q 228 1072 246 1054 q 183 1090 210 1090 z "},"":{"ha":469,"x_min":4,"x_max":464,"o":"m 4 1118 q 50 1227 11 1189 q 154 1265 89 1265 q 191 1260 169 1265 q 251 1244 213 1256 q 331 1229 306 1229 q 382 1263 371 1229 l 464 1263 q 419 1150 457 1189 q 317 1111 382 1111 q 304 1113 310 1111 q 268 1116 288 1114 q 238 1121 249 1118 l 181 1138 q 153 1144 165 1142 q 133 1147 140 1147 q 105 1140 114 1147 q 92 1118 96 1133 l 4 1118 z "},"":{"ha":311,"x_min":56,"x_max":304,"o":"m 56 919 l 119 1096 l 304 1096 l 240 919 l 56 919 z "},"":{"ha":411,"x_min":-25,"x_max":438,"o":"m -25 835 l -25 1011 l 154 1011 l 154 835 l -25 835 m 257 835 l 257 1011 l 438 1011 l 438 835 l 257 835 z "},"":{"ha":411,"x_min":-25,"x_max":438,"o":"m -25 1114 l -25 1290 l 154 1290 l 154 1114 l -25 1114 m 257 1114 l 257 1290 l 438 1290 l 438 1114 l 257 1114 z "},"#":{"ha":876,"x_min":53,"x_max":758,"o":"m 53 297 l 71 381 l 231 381 l 282 619 l 121 619 l 139 703 l 299 703 l 360 990 l 443 990 l 382 703 l 515 703 l 576 990 l 660 990 l 599 703 l 758 703 l 742 619 l 582 619 l 531 381 l 690 381 l 672 297 l 513 297 l 451 10 l 368 10 l 429 297 l 296 297 l 235 10 l 151 10 l 213 297 l 53 297 m 314 381 l 447 381 l 499 619 l 364 619 l 314 381 z "},"¤":{"ha":686,"x_min":53,"x_max":582,"o":"m 53 293 l 133 372 q 93 503 93 432 q 133 633 93 574 l 54 710 q 106 765 76 740 l 188 683 q 318 727 246 726 q 449 685 390 728 l 529 767 q 582 708 564 743 l 504 633 q 536 571 526 603 q 542 466 551 518 q 501 369 533 414 l 582 290 l 571 276 l 558 264 q 544 250 551 257 q 528 236 536 243 l 449 317 q 386 283 419 294 q 318 272 353 272 q 251 283 283 272 q 189 317 218 294 l 104 236 l 92 250 l 79 263 l 65 278 l 53 293 m 169 500 q 181 442 169 469 q 213 394 193 415 q 260 362 233 374 q 319 350 288 350 q 376 362 349 350 q 425 394 404 374 q 458 444 447 417 q 468 500 468 471 q 458 556 468 529 q 425 606 447 583 q 376 638 404 626 q 319 650 349 650 q 260 638 288 650 q 213 606 233 626 q 181 558 193 585 q 169 500 169 531 z "},"‡":{"ha":901,"x_min":40,"x_max":860,"o":"m 40 258 l 354 258 l 354 507 l 42 508 l 42 685 l 358 683 l 358 994 l 542 993 l 542 683 l 860 682 l 860 506 l 543 507 l 542 258 l 858 257 l 858 82 l 544 81 l 542 -253 l 354 -253 l 354 81 l 42 81 l 40 258 z "},"":{"ha":1021,"x_min":49,"x_max":972,"o":"m 971 699 l 781 667 q 722 822 768 768 q 597 875 675 875 q 439 779 493 875 q 385 493 385 683 q 600 122 385 122 q 792 338 761 122 l 972 314 q 843 65 940 150 q 593 -19 746 -19 q 420 16 497 -19 q 289 117 343 51 q 206 276 235 182 q 178 489 178 371 q 208 710 178 611 q 292 877 238 808 q 425 983 347 946 q 600 1021 503 1021 q 758 990 683 1021 q 882 900 832 958 q 937 813 917 860 q 971 699 957 765 m 653 531 l 49 531 l 107 667 l 711 667 l 653 531 m 569 333 l 49 333 l 107 469 l 628 469 l 569 333 z "},"":{"ha":665,"x_min":56,"x_max":642,"o":"m 56 896 l 306 1000 l 444 1000 l 447 136 l 642 136 l 642 0 l 83 1 l 85 135 l 264 136 l 264 832 l 92 767 l 56 896 z "},"!":{"ha":308,"x_min":64,"x_max":263,"o":"m 64 0 l 64 196 l 254 196 l 254 0 l 64 0 m 71 1001 l 263 1001 l 233 294 l 93 294 l 71 1001 z "},"\"":{"ha":536,"x_min":44,"x_max":492,"o":"m 44 589 l 115 793 l 49 793 l 49 1001 l 242 1001 l 242 813 l 129 589 l 44 589 m 293 589 l 365 793 l 296 793 l 296 1001 l 492 1001 l 492 813 l 378 589 l 293 589 z "}}}
